<?xml version="1.0" standalone="no"?>
<!DOCTYPE svg PUBLIC "-//W3C//DTD SVG 1.1//EN" "http://www.w3.org/Graphics/SVG/1.1/DTD/svg11.dtd" >
<svg xmlns="http://www.w3.org/2000/svg" xmlns:xlink="http://www.w3.org/1999/xlink" version="1.1">
<metadata>
Created by FontForge 20170731 at Wed Oct 10 17:20:42 2018
 By Aleksey,,,
Copyright (c) 2018 by Gameboth.studio. All rights reserved.
</metadata>
<defs>
<font id="Balbeer-Regular" horiz-adv-x="563" >
  <font-face 
    font-family="Balbeer"
    font-weight="400"
    font-stretch="normal"
    units-per-em="1000"
    panose-1="0 0 0 0 0 0 0 0 0 0"
    ascent="750"
    descent="-250"
    x-height="641"
    cap-height="754"
    bbox="-95 -256 872 1001"
    underline-thickness="50"
    underline-position="-200"
    unicode-range="U+000D-2212"
  />
<missing-glyph horiz-adv-x="211" 
 />
    <glyph glyph-name=".notdef" horiz-adv-x="211" 
 />
    <glyph glyph-name=".null" horiz-adv-x="0" 
 />
    <glyph glyph-name="nonmarkingreturn" horiz-adv-x="333" 
 />
    <glyph glyph-name="NULL" horiz-adv-x="0" 
 />
    <glyph glyph-name="NULL" horiz-adv-x="0" 
 />
    <glyph glyph-name="CR" unicode="&#xd;" horiz-adv-x="211" 
 />
    <glyph glyph-name="space" unicode=" " horiz-adv-x="211" 
 />
    <glyph glyph-name="exclam" unicode="!" horiz-adv-x="311" 
d="M62 218q-14 0 -23 9t-9 23l-30 472q0 13 9.5 22.5t22.5 9.5h175q13 0 22.5 -9.5t9.5 -22.5l-29 -472q0 -13 -9.5 -22.5t-22.5 -9.5h-116zM52 1q-9 0 -15.5 6t-6.5 15v120q0 9 6.5 15.5t15.5 6.5h136q9 0 15.5 -6.5t6.5 -15.5v-120q0 -9 -6.5 -15t-15.5 -6h-136z" />
    <glyph glyph-name="quotedbl" unicode="&#x22;" horiz-adv-x="364" 
d="M138 754q10 0 16 -7t3 -16l-46 -149q-2 -9 -10.5 -16t-18.5 -7h-65q-10 0 -15 7t-2 16l45 149q2 9 11 16t19 7h63zM273 754q10 0 15 -7t3 -16l-45 -149q-3 -9 -12 -16t-18 -7h-64q-10 0 -15.5 7t-2.5 16l46 149q2 9 10.5 16t18.5 7h64z" />
    <glyph glyph-name="numbersign" unicode="#" horiz-adv-x="753" 
d="M659 596q9 0 15.5 -6.5t6.5 -15.5v-92q0 -9 -6.5 -15.5t-15.5 -6.5h-86l-42 -161h97q9 0 15.5 -6.5t6.5 -15.5v-92q0 -9 -6.5 -15t-15.5 -6h-132l-33 -131q-4 -13 -15.5 -22.5t-25.5 -9.5h-86q-13 0 -20 9t-4 23l34 131h-114l-34 -131q-3 -13 -14.5 -22.5t-25.5 -9.5h-86
q-13 0 -20 9t-4 23l34 131h-60q-9 0 -15.5 6t-6.5 15v92q0 9 6.5 15.5t15.5 6.5h95l41 161h-105q-9 0 -15.5 6.5t-6.5 15.5v92q0 9 6.5 15.5t15.5 6.5h140l32 126q4 13 16 22.5t25 9.5h86q13 0 20 -9.5t3 -22.5l-32 -126h114l33 126q3 13 15 22.5t25 9.5h86q13 0 20 -9.5
t4 -22.5l-33 -126h52zM381 299l41 161h-114l-41 -161h114z" />
    <glyph glyph-name="dollar" unicode="$" horiz-adv-x="441" 
d="M369 289q0 -116 -124 -158v-110q0 -8 -6 -14t-14 -6h-81q-8 0 -14 6t-6 14v94q-27 1 -51 6q-37 10 -58 18q-19 5 -14 25l18 76q6 22 27 15q72 -23 100 -23q36 0 60 11q21 12 21 41q0 20 -23 37t-41 23.5t-30 8.5q-1 0 -2 1q-54 19 -79 44q-41 42 -41 110q0 118 113 154
v72q0 8 6 14t14 6h81q8 0 14 -6t6 -14v-61q5 -1 14.5 -2.5t14.5 -2.5q8 -2 57 -16q8 -2 12.5 -10t1.5 -16l-19 -66q-2 -9 -10.5 -13t-16.5 -1q-4 1 -12.5 4.5t-12.5 4.5q-128 43 -128 -35q0 -22 15 -33q13 -10 34 -18l36 -14q1 0 12 -4.5t18.5 -8t22 -11.5t24.5 -16
t22.5 -21.5t20 -28t13 -34.5t5.5 -42z" />
    <glyph glyph-name="percent" unicode="%" horiz-adv-x="491" 
d="M23 0q-13 0 -19.5 9t-1.5 23l236 689q5 13 17.5 22.5t25.5 9.5h115q13 0 19.5 -9.5t1.5 -22.5l-236 -689q-4 -13 -16.5 -22.5t-26.5 -9.5h-115zM164 671q0 -34 -24 -57.5t-58 -23.5t-57.5 23.5t-23.5 57.5t23.5 57.5t57.5 23.5t58 -23.5t24 -57.5zM411 82q0 -34 -24 -58
t-58 -24t-57.5 24t-23.5 58q0 33 23.5 57t57.5 24t58 -24t24 -57z" />
    <glyph glyph-name="ampersand" unicode="&#x26;" horiz-adv-x="668" 
d="M590 106q15 -15 -1 -28l-70 -64q-14 -13 -28 1q-49 52 -60 64q-38 -38 -86 -59q-49 -19 -109 -19q-34 0 -72.5 12t-76.5 35.5t-62.5 67t-24.5 98.5q0 20 1 33t8 39.5t20 47.5t40.5 47t65.5 46q7 4 8 12t-5 13q-17 15 -27 27.5t-20.5 44t-10.5 72.5q0 45 18.5 78t48.5 49
t61 23.5t63 7.5q30 0 59.5 -8t58.5 -25.5t47.5 -52t18.5 -80.5q0 -55 -31 -93.5t-79 -71.5q-12 -9 -3 -21l75 -108q3 -5 8.5 -4t7.5 6q7 16 16 49q2 8 9 12t15 2l79 -19q17 -5 14 -24q-19 -81 -54 -131q5 -4 19 -18.5t32 -33t27 -27.5zM226 639q-17 -16 -17 -38
q0 -28 29 -63l19 -24q12 -16 27 -3l20 16q38 33 38 64q0 27 -18 46q-21 19 -50 19q-31 0 -48 -17zM335 160q15 11 4 26l-109 147q-12 13 -27 5q-34 -24 -50 -50q-22 -32 -22 -69q0 -45 27 -74t73 -29q27 0 58 13q25 12 46 31z" />
    <glyph glyph-name="quotesingle" unicode="'" horiz-adv-x="286" 
d="M188 754q13 0 20.5 -9.5t3.5 -22.5l-61 -213q-3 -13 -15 -22.5t-25 -9.5h-86q-13 0 -20.5 9.5t-3.5 22.5l61 213q3 13 15 22.5t25 9.5h86z" />
    <glyph glyph-name="parenleft" unicode="(" horiz-adv-x="320" 
d="M178 6q-7 -8 -20 -4.5t-23 15.5q-135 155 -135 361t135 360q10 12 23 15t20 -4l63 -63q7 -8 6.5 -19t-8.5 -20q-101 -115 -101 -269.5t101 -269.5q8 -9 8.5 -20t-6.5 -19z" />
    <glyph glyph-name="parenright" unicode=")" horiz-adv-x="320" 
d="M69 6l-63 63q-16 18 2 39q101 116 101 270t-101 269q-18 21 -2 39l63 63q7 7 20.5 4t23.5 -15q135 -154 135 -360t-135 -361q-11 -12 -24 -15.5t-20 4.5z" />
    <glyph glyph-name="asterisk" unicode="*" horiz-adv-x="332" 
d="M259 698q4 -14 -10 -17l-49 -16q-7 -2 -9 -9t2 -13l32 -39q9 -11 -3 -20l-30 -24q-10 -8 -20 2l-32 42q-11 13 -22 0l-33 -42q-8 -10 -19 -2l-31 24q-11 9 -2 20l31 39q5 6 3 13t-9 9l-49 16q-14 3 -10 17l12 37q6 13 17 9l48 -16q7 -2 12.5 2t5.5 11v54q0 5 4 9.5
t10 4.5h39q5 0 9 -4.5t4 -9.5v-55q0 -7 6 -11t12 -2l51 17q13 4 17 -9zM158 658q8 8 5 15l-10 28q0 10 -13 10h-23q-11 0 -13 -10l-9 -28q-3 -7 5 -15l20 -16q9 -5 18 0z" />
    <glyph glyph-name="plus" unicode="+" horiz-adv-x="504" 
d="M410 457q9 0 15.5 -6.5t6.5 -15.5v-103q0 -9 -6.5 -15t-15.5 -6h-121v-126q0 -9 -6.5 -15t-15.5 -6h-103q-9 0 -15 6t-6 15v126h-121q-9 0 -15.5 6t-6.5 15v103q0 9 6.5 15.5t15.5 6.5h121v117q0 9 6 15t15 6h103q9 0 15.5 -6t6.5 -15v-117h121z" />
    <glyph glyph-name="comma" unicode="," horiz-adv-x="319" 
d="M2 -22l78 171q7 15 23 15l118 -1q13 0 20.5 -11.5t2.5 -23.5l-82 -172q-7 -16 -23 -14l-115 1q-13 0 -20 11t-2 24z" />
    <glyph glyph-name="hyphen" unicode="-" horiz-adv-x="397" 
d="M0 425q0 9 6.5 15.5t15.5 6.5h282q9 0 15 -6.5t6 -15.5v-92q0 -9 -6 -15t-15 -6h-282q-9 0 -15.5 6t-6.5 15v92z" />
    <glyph glyph-name="period" unicode="." horiz-adv-x="234" 
d="M18 1q-8 0 -13 5.5t-5 12.5v126q0 7 5 12.5t13 5.5h126q8 0 13 -5.5t5 -12.5v-126q0 -7 -5 -12.5t-13 -5.5h-126z" />
    <glyph glyph-name="slash" unicode="/" horiz-adv-x="635" 
d="M135 1h-116q-13 0 -17.5 9.5t2.5 22.5l375 689q7 13 21.5 22.5t27.5 9.5h116q13 0 17 -9.5t-3 -22.5l-374 -689q-7 -13 -21.5 -22.5t-27.5 -9.5z" />
    <glyph glyph-name="zero" unicode="0" horiz-adv-x="668" 
d="M500 93q-81 -93 -201 -93q-122 0 -201 91l-13 16q-85 111 -85 276q0 92 31 173t90 132l16 12q69 50 162 50q92 0 161 -51l17 -12q58 -51 88.5 -132t30.5 -173q0 -163 -83 -273zM417 383q0 79 -31 135t-88 56t-88 -56t-31 -135q0 -82 32 -143.5t87 -61.5t87 61.5t32 143.5
z" />
    <glyph glyph-name="one" unicode="1" horiz-adv-x="306" 
d="M180 750h5.5t13 -2.5t16.5 -8t13 -19t6 -31.5v-651q0 -12 -2.5 -20t-6 -12t-9 -6t-9 -2h-8.5l-5 1h-89q-3 0 -8.5 0.5t-14 10.5t-8.5 30v486q0 8 -6.5 11t-12.5 -1l-15 -11q-18 -12 -29 5l-59 89q-14 21 8 38l132 91q4 2 7 2h81z" />
    <glyph glyph-name="two" unicode="2" horiz-adv-x="538" 
d="M438 162q28 0 28 -34v-96q0 -16 -8 -24t-16 -8l-7 -1h-435q-13 0 -22 9t-9 22v99q0 2 2 6q29 32 93.5 98t95.5 101q2 2 19 20.5t29.5 32t31 36t30 40t20.5 36t9 30.5q0 30 -25 47.5t-60 17.5q-60 0 -87 -49q-7 -12 -20 -12h-116q-16 0 -20 12.5t5 30.5q31 89 95.5 134
t140.5 45q91 0 158 -52l16 -13v-1q71 -64 71 -159q0 -37 -20 -81.5t-60 -96.5t-71 -87t-81 -88q-4 -5 -1.5 -10t7.5 -5h207z" />
    <glyph glyph-name="three" unicode="3" horiz-adv-x="566" 
d="M446 391q-8 -10 -1 -20q49 -67 49 -149q0 -69 -37 -124l-12 -17q-76 -88 -196 -88q-95 0 -167.5 60t-79.5 153q0 22 16 22h130q8 0 13 -4.5t5 -9.5l1 -4q4 -26 28 -40t55 -14q33 0 57 18t24 47q0 33 -28 54t-62 21h-56h-5.5t-9 6t-5.5 18v122q0 8 4.5 12.5t8.5 4.5h5h58
q33 0 61 18.5t28 51.5q0 27 -24 44t-59 17q-64 0 -79 -48l-3 -10q-1 -4 -5 -4h-147q-11 0 -11 10v1q6 93 78 153.5t169 60.5q89 0 155 -48l15 -13q35 -24 55 -72.5t20 -93.5q0 -77 -48 -135z" />
    <glyph glyph-name="four" unicode="4" horiz-adv-x="613" 
d="M521 321q9 0 13.5 -6.5t5.5 -12.5v-6v-110q0 -11 -4.5 -17.5t-9.5 -7.5l-4 -1h-31q-5 0 -5 -5v-126q0 -13 -5.5 -20.5t-10.5 -8.5l-6 -1h-114q-3 0 -6.5 1t-10 8.5t-6.5 20.5v126q0 5 -5 5h-298q-11 0 -17 8t-7 16v8v97q0 2 1 3l325 443q7 15 28 15h109q23 3 23 -21v-403
q0 -5 5 -5h30zM311 322q15 0 15 15v105q0 6 -5.5 8t-9.5 -3l-81 -110q-4 -5 -1 -10t8 -5h74z" />
    <glyph glyph-name="five" unicode="5" horiz-adv-x="577" 
d="M429 65q-75 -70 -181 -70q-94 0 -168 61.5t-80 157.5v1q0 10 7 17t17 7h123q8 0 13.5 -5t5.5 -13v-2q2 -28 26.5 -44.5t59.5 -16.5q42 0 64.5 25t22.5 63q0 21 -5 37t-12.5 26t-21.5 17t-25.5 10.5t-32 5t-33 1.5t-36.5 -0.5t-35 -0.5h-77q-15 0 -25 10.5t-10 24.5v344
q0 12 8.5 20.5t20.5 8.5h393q11 0 19 -8t8 -19v-104q0 -13 -9 -22t-22 -9h-240q-8 0 -13.5 -5.5t-5.5 -13.5v-47q0 -8 5.5 -13.5t13.5 -5.5q68 0 112.5 -9t84.5 -37l15 -11q1 -1 2 -1q71 -63 84 -161q3 -19 3 -41q0 -97 -62 -164z" />
    <glyph glyph-name="six" unicode="6" horiz-adv-x="588" 
d="M433 68q-74 -71 -173 -71q-108 0 -179 77l-13 14l-12 16q-56 79 -56 224v38.5v40.5t0.5 37.5t2 39.5t4.5 35.5t7 37t10 33t14 34t19 29.5t24 29l12 13l17 13q68 49 166 49q112 0 186 -60l10 -8q13 -10 13.5 -26.5t-10.5 -28.5l-59 -62q-21 -21 -47 -6l-5 3q-47 26 -95 26
q-44 0 -74 -27.5t-30 -70.5v-6q50 20 95 20q80 0 145 -48l16 -12q93 -77 95 -198q0 -94 -69 -171zM355 253q0 34 -28.5 63.5t-66.5 29.5t-66.5 -29.5t-28.5 -63.5q0 -35 28 -63t67 -28t67 29t28 62z" />
    <glyph glyph-name="seven" unicode="7" horiz-adv-x="536" 
d="M464 721v-89q0 -3 -2 -11l-234 -598q-10 -24 -35 -24h-104q-15 0 -23.5 12.5t-3.5 26.5l200 511q6 14 -2.5 26.5t-23.5 12.5h-208q-11 0 -19.5 8.5t-8.5 19.5v105q0 12 8.5 20.5t19.5 8.5h408q11 0 19.5 -8.5t8.5 -20.5z" />
    <glyph glyph-name="eight" unicode="8" horiz-adv-x="587" 
d="M439 72q-74 -71 -181 -71q-82 0 -150 45l-17 12q-91 85 -91 186q0 96 73 169q-44 57 -44 124q0 59 32 108l11 17q72 88 183 88q94 0 160 -63l14 -14q52 -62 52 -136q0 -67 -42 -121q76 -71 76 -172q0 -89 -61 -158zM313 537q0 15 -14.5 33t-43.5 19q-24 1 -41 -14
t-17 -38q0 -22 17 -36.5t41 -14.5q23 0 40.5 14.5t17.5 36.5zM348 244q0 33 -26.5 57t-63.5 24t-63.5 -23.5t-26.5 -57.5q0 -35 26.5 -59t63.5 -24q35 0 62.5 24.5t27.5 58.5z" />
    <glyph glyph-name="nine" unicode="9" horiz-adv-x="589" 
d="M82 686q76 71 174 71q108 0 179 -77l13 -14l12 -16q56 -78 56 -224v-38.5v-40.5t-0.5 -37.5t-2 -39.5t-4.5 -35.5t-7 -37t-10 -33t-14 -34t-19 -29.5t-24 -29l-13 -13l-16 -13q-68 -49 -166 -49q-111 0 -186 60l-14 11q-11 10 -11.5 24t9.5 25l65 68q18 20 41 6l8 -5
q49 -27 95 -27q43 0 73 28t30 71v5q-48 -19 -94 -19q-79 0 -146 47l-16 13q-92 76 -94 197q0 94 69 172zM161 501q0 -34 28.5 -63t66.5 -29t66 29t28 63q0 36 -27 63q-30 28 -67 28q-40 0 -67.5 -28.5t-27.5 -62.5z" />
    <glyph glyph-name="colon" unicode=":" horiz-adv-x="234" 
d="M18 435q-8 0 -13 5.5t-5 12.5v125q0 8 5 13.5t13 5.5h126q8 0 13 -5.5t5 -13.5v-125q0 -7 -5 -12.5t-13 -5.5h-126zM18 164q-8 0 -13 5t-5 13v126q0 8 5 13t13 5h126q8 0 13 -5t5 -13v-126q0 -8 -5 -13t-13 -5h-126z" />
    <glyph glyph-name="semicolon" unicode=";" horiz-adv-x="319" 
d="M88 435q-8 0 -13 5.5t-5 12.5v125q0 8 5 13.5t13 5.5h126q8 0 13 -5.5t5 -13.5v-125q0 -7 -5 -12.5t-13 -5.5h-126zM2 140q-5 -12 2 -23t20 -12l115 -1q16 0 23 14l82 173q5 12 -2.5 23.5t-20.5 11.5h-118q-17 0 -23 -14z" />
    <glyph glyph-name="less" unicode="&#x3c;" horiz-adv-x="496" 
d="M424 494q0 -13 -9.5 -25t-22.5 -17l-198 -73l198 -73q13 -5 22.5 -17t9.5 -25v-80q0 -13 -9.5 -18.5t-22.5 -0.5l-361 132q-23 8 -30 34q-1 2 -1 8v80q0 6 1 8q7 26 30 34l361 132q13 5 22.5 -0.5t9.5 -18.5v-80z" />
    <glyph glyph-name="equal" unicode="=" horiz-adv-x="504" 
d="M0 532q0 9 6.5 15t15.5 6h388q9 0 15.5 -6t6.5 -15v-103q0 -9 -6.5 -15.5t-15.5 -6.5h-388q-9 0 -15.5 6.5t-6.5 15.5v103zM0 330q0 9 6.5 15.5t15.5 6.5h388q9 0 15.5 -6.5t6.5 -15.5v-103q0 -9 -6.5 -15t-15.5 -6h-388q-9 0 -15.5 6t-6.5 15v103z" />
    <glyph glyph-name="greater" unicode="&#x3e;" horiz-adv-x="496" 
d="M422 427q2 -4 2 -8v-80q0 -4 -2 -8q-5 -25 -30 -34l-361 -132q-13 -5 -22 0.5t-9 18.5v80q0 13 9 25.5t22 16.5l198 73l-198 73q-13 4 -22 16.5t-9 25.5v80q0 13 9 18.5t22 0.5l361 -132q25 -9 30 -34z" />
    <glyph glyph-name="question" unicode="?" horiz-adv-x="521" 
d="M196 754q18 0 42 -3t63.5 -16.5t70.5 -35.5t54 -66t23 -103q0 -81 -60 -142.5t-145 -77.5v-67q0 -9 -6.5 -15t-15.5 -6h-136q-9 0 -15.5 6t-6.5 15v160q0 12 8 20.5t20 10.5q131 11 169 82v-1q7 16 7 30q0 30 -16.5 46t-36.5 19.5t-48.5 -0.5t-42.5 -8t-27 -9
q-4 -2 -9.5 -4t-12.5 -4.5t-11 -3.5q-12 -5 -23 0.5t-15 17.5l-25 89q-7 26 19 35q62 18 76 21q53 10 100 10zM222 164q9 0 15.5 -6.5t6.5 -15.5v-120q0 -9 -6.5 -15t-15.5 -6h-136q-9 0 -15.5 6t-6.5 15v120q0 9 6.5 15.5t15.5 6.5h136z" />
    <glyph glyph-name="at" unicode="@" horiz-adv-x="801" 
d="M646 195h69q8 0 12 -7t0 -15q-111 -177 -325 -177q-31 0 -59.5 2t-71 10t-77.5 22t-72.5 41t-63 63t-42 91.5t-16.5 124.5q0 81 23.5 152t70.5 127.5t124.5 89t177.5 32.5q139 0 236 -84.5t97 -231.5q0 -60 -20.5 -108.5t-51 -77.5t-68 -49t-69 -27.5t-57.5 -7.5
q-34 0 -51 13q-12 7 -18 20q-42 -33 -93 -33q-65 0 -107 45q-42 44 -42 117q0 89 49 160q61 90 156 90q56 0 89 -35l4 17q2 9 11 9h94q5 0 8.5 -4.5t2.5 -9.5q-5 -23 -20 -96.5t-27 -131t-12 -58.5q0 -6 2 -6l1 -1q14 0 38 18v1q77 57 77 159q0 60 -25 104t-64 65t-74 30
t-68 9q-125 0 -207 -77t-82 -225q0 -51 14 -91.5t33.5 -66t50 -43.5t54.5 -26.5t57.5 -13t47.5 -5t35 -0.5q82 0 143 23q36 15 92 67q6 6 14 6zM421 417q0 34 -16 55q-16 17 -39 17q-27 0 -50 -20q-24 -23 -36 -63q-13 -42 -13 -75q0 -43 16 -60q15 -18 37 -18q18 0 33 9
q11 6 24 20q19 24 30 60q14 42 14 75z" />
    <glyph glyph-name="A" unicode="A" horiz-adv-x="673" 
d="M367 754q28 0 35 -27l197 -678q5 -17 -6 -32t-29 -15l-103 -1q-13 0 -23 8t-13 20l-23 92q-3 12 -13 20t-23 7l-141 -1q-13 0 -23 -8t-13 -20l-22 -91q-9 -28 -37 -28l-92 2q-19 0 -30 14.5t-6 32.5l200 678q8 27 36 27h129zM243 332q-4 -18 7 -32t29 -14l35 -1
q18 0 29.5 14.5t6.5 31.5l-17 88q-7 29 -36 29t-36 -29z" />
    <glyph glyph-name="B" unicode="B" horiz-adv-x="573" 
d="M384 410q73 -37 100.5 -107.5t11.5 -136.5t-65.5 -115.5t-116.5 -49.5q-184 0 -265 -1q-20 0 -34.5 15t-14.5 35v654q0 20 14.5 35t34.5 15h243q58 0 98.5 -30.5t54.5 -76t13.5 -93.5t-21 -88.5t-53.5 -55.5zM172 580v-80q0 -16 11 -26t27 -9q86 10 86 82q0 39 -22 52.5
t-67 15.5q-14 1 -24.5 -9.5t-10.5 -25.5zM172 185q0 -15 10 -25.5t24 -9.5q57 1 88 17t31 67q0 35 -21.5 56t-45.5 26.5t-52 5.5q-14 1 -24 -9.5t-10 -25.5v-102z" />
    <glyph glyph-name="C" unicode="C" horiz-adv-x="611" 
d="M189 374q1 -105 73.5 -166t167.5 -43q4 1 11 2.5t16 4.5t14 4q13 4 24 -2t15 -18l27 -92q4 -12 -2 -22.5t-18 -15.5l-26 -8q-28 -9 -65.5 -13.5t-84.5 -0.5t-94 16t-92 40t-79 68t-55 103.5t-21 142.5q0 74 14.5 133.5t36.5 99t57 68t64.5 44t71.5 23.5t67 10t60.5 -0.5
t43 -3.5t23.5 -4q25 -3 69 -19q12 -4 18 -14.5t2 -22.5l-25 -90q-4 -12 -15.5 -18.5t-23.5 -2.5q-6 2 -7 2q-54 13 -95.5 13.5t-71 -15.5t-49 -37t-31 -51t-16 -58t-4.5 -57z" />
    <glyph glyph-name="D" unicode="D" horiz-adv-x="682" 
d="M610 370q0 -69 -14.5 -125.5t-40.5 -94t-61.5 -66t-77 -43.5t-87 -25.5t-92 -12t-92 -3.5t-86.5 1q-21 1 -31 1q-12 0 -20 8.5t-8 19.5v695q0 12 8.5 20.5t19.5 8.5q57 0 110 0.5t101.5 -3t91.5 -9t80.5 -18t68.5 -31.5t55 -48t41 -67.5t25.5 -90.5t8.5 -117zM185 180
q0 -13 9 -21.5t21 -7.5q42 2 74.5 11t54 20t36 30.5t21.5 34.5t11 41.5t4.5 41t0.5 42.5v7q0 30 -0.5 45t-4 41.5t-11 40.5t-22 33t-36 29.5t-54 18.5t-74.5 10q-12 1 -21 -7.5t-9 -20.5v-389z" />
    <glyph glyph-name="E" unicode="E" horiz-adv-x="520" 
d="M352 313h-132q-14 0 -24.5 -10.5t-10.5 -25.5v-78q0 -14 10.5 -24.5t24.5 -10.5h192q15 0 25.5 -10.5t10.5 -24.5v-92q0 -14 -10.5 -24.5t-25.5 -10.5h-377q-14 0 -24.5 10.5t-10.5 24.5v682q0 14 10.5 24.5t24.5 10.5h377q15 0 25.5 -10.5t10.5 -24.5v-93
q0 -15 -10.5 -25t-25.5 -10h-192q-14 0 -24.5 -10.5t-10.5 -25.5v-44q0 -15 10.5 -25t24.5 -10h132q14 0 24.5 -10.5t10.5 -25.5v-92q0 -15 -10.5 -25t-24.5 -10z" />
    <glyph glyph-name="F" unicode="F" horiz-adv-x="516" 
d="M34 754h376q14 0 24 -10t10 -24v-96q0 -14 -10 -24t-24 -10h-190q-14 0 -24 -10t-10 -24v-46q0 -14 10 -24t24 -10h135q14 0 24 -10t10 -24v-97q0 -14 -10 -24t-24 -10h-135q-14 0 -24 -10t-10 -24v-242q0 -14 -10 -24t-24 -10h-118q-14 0 -24 10t-10 24v685q0 14 10 24
t24 10z" />
    <glyph glyph-name="G" unicode="G" horiz-adv-x="648" 
d="M288 441q0 15 10.5 25.5t25.5 10.5h216q15 0 25.5 -10.5t10.5 -25.5v-404q0 -15 -10.5 -25.5t-25.5 -10.5h-162q-88 0 -154.5 19.5t-108.5 52.5t-68.5 82t-36.5 102t-10 118q0 105 31.5 182.5t80.5 118.5t112 61t122.5 19.5t114.5 -15.5q22 -5 43 -13q14 -5 20.5 -17.5
t2.5 -26.5l-23 -79q-4 -15 -17.5 -22t-28.5 -2h-1q-33 12 -68 14t-70.5 -9t-64 -35t-46 -69.5t-17.5 -106.5q0 -213 169 -213q15 0 27 16t12 33v65q0 15 -10.5 25.5t-25.5 10.5h-39q-15 0 -25.5 10.5t-10.5 25.5v93z" />
    <glyph glyph-name="H" unicode="H" horiz-adv-x="632" 
d="M373 33v244q0 13 -9.5 22.5t-22.5 9.5h-122q-13 0 -22.5 -9.5t-9.5 -22.5v-244q0 -13 -9.5 -22.5t-22.5 -9.5h-123q-14 0 -23 9.5t-9 22.5v689q0 13 9.5 22.5t22.5 9.5h123q13 0 22.5 -9.5t9.5 -22.5v-216q0 -13 9.5 -22.5t22.5 -9.5h122q13 0 22.5 9.5t9.5 22.5v216
q0 13 10 22.5t23 9.5h122q13 0 22.5 -9.5t9.5 -22.5v-689q0 -13 -9 -22.5t-23 -9.5h-122q-14 0 -23.5 9.5t-9.5 22.5z" />
    <glyph glyph-name="I" unicode="I" horiz-adv-x="252" 
d="M161 1h-143q-8 0 -13 5.5t-5 12.5v717q0 8 5 13t13 5h143q8 0 13.5 -5.5t5.5 -12.5v-717q0 -7 -5.5 -12.5t-13.5 -5.5z" />
    <glyph glyph-name="J" unicode="J" horiz-adv-x="423" 
d="M17 146q2 10 10 15.5t18 3.5q2 0 3 -1q61 -14 91 9.5t30 65.5v330q0 10 -7 17t-17 7h-100q-10 0 -17 7t-7 17v113q0 10 7 17t17 7h283q10 0 16.5 -7t6.5 -17v-512q0 -18 -2.5 -38t-16 -54.5t-36.5 -60t-70.5 -45t-110.5 -19.5q-32 0 -95 13q-10 1 -15.5 9t-3.5 18z" />
    <glyph glyph-name="K" unicode="K" horiz-adv-x="596" 
d="M520 36q7 -12 0 -23.5t-21 -11.5h-153q-16 0 -22 13l-144 285v-277q0 -9 -6.5 -15t-15.5 -6h-136q-9 0 -15.5 6t-6.5 15v710q0 9 6.5 15.5t15.5 6.5h136q9 0 15.5 -6.5t6.5 -15.5v-273l134 281q7 14 22 14h151q14 0 21 -11.5t1 -23.5l-160 -322q-6 -11 0 -22z" />
    <glyph glyph-name="L" unicode="L" horiz-adv-x="506" 
d="M412 161q9 0 15.5 -6.5t6.5 -15.5v-115q0 -9 -6.5 -15.5t-15.5 -6.5h-246q-3 -1 -8 -1h-137q-9 0 -15 6t-6 15v710q0 9 6 15.5t15 6.5h137q9 0 15 -6.5t6 -15.5v-571h233z" />
    <glyph glyph-name="M" unicode="M" horiz-adv-x="756" 
d="M662 754q9 0 15.5 -6.5t6.5 -15.5v-710q0 -9 -6.5 -15t-15.5 -6h-136q-9 0 -15.5 6t-6.5 15v360l-99 -252q-3 -13 -18 -13h-92q-13 0 -18 13l-98 250v-358q0 -9 -6 -15t-15 -6h-137q-9 0 -15 6t-6 15v710q0 9 6 15.5t15 6.5h178q14 0 19 -13l118 -319q2 -4 6 -4t6 4
l118 319q5 13 18 13h178z" />
    <glyph glyph-name="N" unicode="N" horiz-adv-x="624" 
d="M530 754q9 0 15.5 -6.5t6.5 -15.5v-710q0 -9 -6.5 -15t-15.5 -6h-136q-9 0 -15.5 6t-6.5 15v5l-2 4l-191 410v-419q0 -9 -6 -15t-15 -6h-137q-9 0 -15 6t-6 15v710q0 9 6 15.5t15 6.5h91h70q32 0 45 -29l145 -313v320q0 9 6.5 15.5t15.5 6.5h136z" />
    <glyph glyph-name="O" unicode="O" horiz-adv-x="650" 
d="M289 754q71 0 125.5 -29.5t84.5 -71.5t49 -96.5t24.5 -97t5.5 -81.5q0 -42 -6 -85.5t-25 -97.5t-49 -95t-84 -69.5t-125 -28.5q-70 0 -126.5 32t-91.5 85.5t-53 120t-18 138.5q0 32 4 66t14 79t31 84t51.5 73t79 54t109.5 20zM170 378q0 -43 9.5 -87t38 -81.5t71.5 -37.5
q36 0 61 21t36.5 55t16 65.5t4.5 64.5q0 32 -4.5 63.5t-16 66t-36.5 55.5t-61 21q-28 0 -50 -12t-34 -33.5t-20 -42.5t-11 -48.5t-3.5 -40.5t-0.5 -29z" />
    <glyph glyph-name="P" unicode="P" horiz-adv-x="568" 
d="M0 713q0 17 12 29t29 12h137q86 0 148 -19t94 -45t50 -67.5t22 -72.5t4 -73q0 -28 -4.5 -53t-21.5 -58t-45.5 -57.5t-82 -43t-125.5 -22.5q-16 -1 -27.5 -13t-11.5 -28v-160q0 -17 -12 -29t-29 -12h-96q-17 0 -29 12t-12 29v671zM178 433q0 -19 14 -31t33 -10q57 8 77 33
t20 65q0 88 -96 104q-19 4 -33.5 -8.5t-14.5 -31.5v-121z" />
    <glyph glyph-name="Q" unicode="Q" horiz-adv-x="650" 
d="M484 83l47 -105q6 -13 -1 -24t-21 -11l-125 -1q-15 -2 -22 14l-24 50q-32 -4 -49 -4q-70 0 -126.5 32t-91.5 85.5t-53 120t-18 138.5q0 32 4 66t14 79t31 84t51.5 73t79 54t109.5 20q71 0 125.5 -29.5t84.5 -71.5t49 -96.5t24.5 -97t5.5 -81.5q0 -74 -21 -155.5
t-73 -139.5zM170 378q0 -43 9.5 -87t38 -81.5t71.5 -37.5q36 0 61 21t36.5 55t16.5 65.5t5 64.5q0 32 -5 63.5t-16.5 66t-36.5 55.5t-61 21q-28 0 -50 -12t-34 -33.5t-20 -42.5t-11 -48.5t-3.5 -40.5t-0.5 -29z" />
    <glyph glyph-name="R" unicode="R" horiz-adv-x="571" 
d="M494 37q8 -12 2.5 -23.5t-18.5 -11.5l-125 -1q-16 0 -25 14l-148 227h-1v-200q0 -16 -12.5 -28.5t-28.5 -12.5h-96q-17 0 -29.5 12t-12.5 29v671q0 17 12 29t29 12h138q86 0 148 -19t94 -45t50 -67.5t22 -72.5t4 -73q0 -158 -150 -211zM179 554v-121q0 -19 14 -31t33 -10
q57 8 77 33t20 65q0 88 -96 104q-19 4 -33.5 -8.5t-14.5 -31.5z" />
    <glyph glyph-name="S" unicode="S" horiz-adv-x="567" 
d="M310 458q1 0 12 -4.5t18 -7t22 -9.5t25.5 -14t25.5 -18t25.5 -22.5t22 -27.5t18.5 -33t11.5 -39t4.5 -46q0 -49 -17.5 -89t-46.5 -64t-61 -41.5t-66 -25.5t-56.5 -11.5t-37.5 -3.5q-65 0 -111 10q-25 5 -79 23q-25 9 -18 34l24 101q3 12 14 18.5t23 2.5q96 -31 133 -31
q52 0 80 16q29 15 29 54q0 27 -31.5 50t-54.5 30.5t-40 11.5q-1 1 -3 1l-10 3q-11 4 -17 6.5t-19.5 9t-22 12t-21.5 15.5t-21.5 20.5t-18.5 25.5t-16 31.5t-10 38t-4 45.5q0 59 23 103t54 66t70.5 35.5t63.5 16.5t42 3q46 0 99 -10q20 -4 76 -21q11 -4 17 -14t2 -21l-25 -88
q-4 -12 -15 -17.5t-22 -1.5l-33 12q-12 4 -21.5 6.5t-33 8t-41 4.5t-36 -5.5t-29 -20.5t-10.5 -41q0 -30 19 -43q20 -15 45 -24z" />
    <glyph glyph-name="T" unicode="T" horiz-adv-x="608" 
d="M514 754q9 0 15.5 -6.5t6.5 -15.5v-115q0 -9 -6.5 -15.5t-15.5 -6.5h-156v-573q0 -9 -6.5 -15t-15.5 -6h-136q-9 0 -15.5 6t-6.5 15v573h-156q-9 0 -15 6.5t-6 15.5v115q0 9 6 15.5t15 6.5h492z" />
    <glyph glyph-name="U" unicode="U" horiz-adv-x="628" 
d="M524 754q13 0 22.5 -9.5t9.5 -22.5v-414q-2 -72 -15 -123.5t-42.5 -95t-84.5 -65.5t-136 -22q-141 0 -207 70t-71 250v28v372q0 13 9.5 22.5t22.5 9.5h116q13 0 22.5 -9.5t9.5 -22.5v-412q2 -78 22.5 -112.5t75.5 -34.5q58 0 77.5 31t21.5 102v426q0 13 9.5 22.5
t22.5 9.5h115z" />
    <glyph glyph-name="V" unicode="V" horiz-adv-x="715" 
d="M466 740q4 14 18 14h140q10 0 15.5 -8t2.5 -17l-222 -702q-9 -26 -35 -26h-126q-26 0 -35 26l-222 702q-3 9 3 17t16 8h139q14 0 18 -14l126 -396q4 -14 18 -14t18 14z" />
    <glyph glyph-name="W" unicode="W" horiz-adv-x="853" 
d="M760 754q9 0 15 -6.5t5 -15.5l-67 -710q-1 -13 -15 -20l1 -1h-166q-14 0 -19 13l-117 319q-2 4 -6.5 4t-6.5 -4l-117 -319q-5 -13 -19 -13h-166l1 2q-13 5 -15 19l-67 710q-1 9 5 15.5t15 6.5h136q9 0 16 -6.5t8 -15.5l36 -386l110 279q6 13 18 13h92q14 0 18 -13
l109 -279l36 386q1 9 8 15.5t16 6.5h136z" />
    <glyph glyph-name="X" unicode="X" horiz-adv-x="645" 
d="M570 36q6 -12 -1 -23.5t-21 -11.5h-153q-15 0 -22 13l-86 170l-86 -170q-7 -13 -22 -13h-153q-14 0 -21 11.5t0 23.5l171 339q6 11 0 22l-160 322q-6 12 1 23.5t21 11.5h151q15 0 22 -14l76 -159l76 159q7 14 22 14h151q14 0 21 -11.5t1 -23.5l-160 -322q-5 -11 0 -22z
" />
    <glyph glyph-name="Y" unicode="Y" horiz-adv-x="646" 
d="M555 755q10 0 15.5 -8t1.5 -17l-194 -447q-1 -1 -1 -2v-259q0 -9 -6.5 -15t-15.5 -6h-136q-9 0 -15.5 6t-6.5 15v259q0 1 -0.5 1t-0.5 1l-194 447q-4 9 1 17t15 8h134q11 0 16 -11l102 -245q4 -11 16.5 -11t17.5 11l102 245q3 11 16 11h133z" />
    <glyph glyph-name="Z" unicode="Z" horiz-adv-x="632" 
d="M535 754q14 0 21 -11.5t1 -23.5l-283 -559h238q9 0 15.5 -6.5t6.5 -15.5v-115q0 -9 -6.5 -15.5t-15.5 -6.5h-487q-14 0 -21 11.5t-1 23.5l285 559h-242q-9 0 -15.5 6.5t-6.5 15.5v115q0 9 6.5 15.5t15.5 6.5h338h151z" />
    <glyph glyph-name="bracketleft" unicode="[" horiz-adv-x="367" 
d="M276 595h-96v-435h96q8 0 13.5 -5.5t5.5 -12.5v-122q0 -8 -5.5 -13.5t-13.5 -5.5h-113h-5h-136q-9 0 -15.5 6t-6.5 15v710q0 9 6.5 15.5t15.5 6.5h254q8 0 13.5 -5.5t5.5 -13.5v-122q0 -7 -5.5 -12.5t-13.5 -5.5z" />
    <glyph glyph-name="backslash" unicode="\" horiz-adv-x="491" 
d="M281 1q-14 0 -26.5 9.5t-16.5 22.5l-236 689q-5 13 1.5 22.5t19.5 9.5h115q13 0 25.5 -9.5t17.5 -22.5l236 -689q5 -14 -1.5 -23t-19.5 -9h-115z" />
    <glyph glyph-name="bracketright" unicode="]" horiz-adv-x="367" 
d="M273 754q9 0 15.5 -6.5t6.5 -15.5v-710q0 -9 -6.5 -15t-15.5 -6h-136h-5h-114q-8 0 -13 5.5t-5 13.5v122q0 8 5 13t13 5h97v435h-97q-8 0 -13 5.5t-5 12.5v122q0 8 5 13.5t13 5.5h255z" />
    <glyph glyph-name="asciicircum" unicode="^" horiz-adv-x="665" 
d="M308 590q1 0 3.5 0.5t4.5 0.5h87q2 0 4.5 -0.5t3.5 -0.5q28 -3 37 -21l143 -248q5 -9 -1.5 -15.5t-19.5 -6.5h-86q-33 0 -46 22l-79 136l-78 -136q-13 -22 -46 -22h-86q-13 0 -19.5 6.5t-1.5 15.5l143 248q9 18 37 21z" />
    <glyph glyph-name="underscore" unicode="_" horiz-adv-x="604" 
d="M0 -23q0 9 6.5 15.5t15.5 6.5h488q9 0 15.5 -6.5t6.5 -15.5v-103q0 -9 -6.5 -15t-15.5 -6h-488q-9 0 -15.5 6t-6.5 15v103z" />
    <glyph glyph-name="grave" unicode="`" horiz-adv-x="319" 
d="M244 686q6 -12 -1 -23.5t-21 -11.5l-115 -1q-16 0 -22 14l-82 172q-6 13 1 24t21 11l119 1q16 0 23 -15z" />
    <glyph glyph-name="a" unicode="a" horiz-adv-x="583" 
d="M312 641q23 0 30 -23l167 -576q5 -15 -4.5 -27.5t-25.5 -12.5l-87 -1q-24 0 -31 24l-19 78q-8 25 -31 23l-120 -1q-11 0 -19.5 -7t-10.5 -17l-19 -77q-7 -24 -32 -24l-78 2q-16 0 -25 12t-5 28l170 576q7 23 30 23h110zM207 282q-4 -15 5.5 -27t24.5 -12l30 -1
q15 0 24.5 12.5t5.5 26.5l-14 75q-6 24 -31 24t-30 -24z" />
    <glyph glyph-name="b" unicode="b" horiz-adv-x="498" 
d="M326 348q62 -32 85.5 -91.5t10 -115.5t-56 -98t-98.5 -42q-157 0 -225 -1q-17 0 -29.5 12.5t-12.5 29.5v556q0 17 12.5 30t29.5 13h206q61 0 98 -39.5t43 -90t-11 -99t-52 -64.5zM146 493v-68q0 -13 9.5 -22t22.5 -8q74 10 74 70q0 33 -18.5 44.5t-57.5 13.5
q-12 1 -21 -8t-9 -22zM146 157q0 -13 8.5 -21.5t20.5 -8.5q23 0 38.5 2.5t31 9.5t23.5 22t8 38q0 42 -31 58.5t-70 16.5q-12 1 -20.5 -8t-8.5 -22v-87z" />
    <glyph glyph-name="c" unicode="c" horiz-adv-x="530" 
d="M161 318q0 -90 61.5 -141.5t142.5 -36.5q15 3 35 10q11 3 20.5 -2t12.5 -15l23 -79q4 -10 -1 -19t-16 -13l-22 -7q-23 -8 -55.5 -11.5t-72.5 -0.5t-79.5 13.5t-77.5 34.5t-67.5 58t-47 88t-17.5 121q0 80 20 140t49 93.5t70.5 54.5t75.5 27.5t73 6t55 -2.5t29 -5
q19 -1 59 -16q10 -3 15 -12t2 -19l-21 -77q-4 -10 -13.5 -15.5t-19.5 -2.5l-6 2q-55 17 -95 10.5t-65.5 -23t-40.5 -45.5t-20.5 -57t-5.5 -59z" />
    <glyph glyph-name="d" unicode="d" horiz-adv-x="590" 
d="M518 314q0 -59 -12.5 -106.5t-34.5 -80t-53 -56.5t-65 -37t-74.5 -21t-78 -10.5t-78 -2.5t-73.5 1q-17 1 -25 1q-10 0 -17 7t-7 16v591q0 10 7 17.5t17 7.5q55 1 105 0t95 -3.5t84 -11t72 -22.5t58.5 -38.5t43 -58.5t27 -82.5t9.5 -110.5zM157 153q0 -11 8 -18.5t18 -6.5
q36 2 63.5 9.5t45.5 17t30 26.5t18.5 29.5t9.5 35t3.5 35t0.5 35.5v7q0 29 -1 44t-5 40t-15 39t-29 29t-49 22.5t-72 9.5q-10 1 -18 -6t-8 -17v-331z" />
    <glyph glyph-name="e" unicode="e" horiz-adv-x="453" 
d="M299 266h-112q-12 0 -21 -9t-9 -22v-66q0 -12 9 -21t21 -9h163q13 0 22 -8.5t9 -20.5v-79q0 -12 -9 -20.5t-22 -8.5h-320q-12 0 -21 8.5t-9 20.5v580q0 12 9 21t21 9h320q13 0 22 -9t9 -21v-79q0 -13 -9 -21.5t-22 -8.5h-163q-12 0 -21 -8.5t-9 -21.5v-38q0 -12 9 -20.5
t21 -8.5h112q12 0 21 -9t9 -22v-78q0 -13 -9 -21.5t-21 -8.5z" />
    <glyph glyph-name="f" unicode="f" horiz-adv-x="449" 
d="M29 641h319q12 0 20.5 -8.5t8.5 -20.5v-82q0 -12 -8.5 -20.5t-20.5 -8.5h-161q-12 0 -20.5 -8t-8.5 -20v-40q0 -12 8.5 -20t20.5 -8h115q12 0 20.5 -8.5t8.5 -20.5v-83q0 -12 -8.5 -20.5t-20.5 -8.5h-115q-12 0 -20.5 -8t-8.5 -21v-205q0 -12 -8.5 -20.5t-20.5 -8.5h-100
q-12 0 -20.5 8.5t-8.5 20.5v582q0 12 8.5 20.5t20.5 8.5z" />
    <glyph glyph-name="g" unicode="g" horiz-adv-x="562" 
d="M245 375q0 13 8.5 21.5t21.5 8.5h184q13 0 22 -8.5t9 -21.5v-344q0 -13 -9 -21.5t-22 -8.5h-138q-93 0 -157.5 24.5t-99.5 70t-49.5 99.5t-14.5 124q0 89 27 155t68.5 101t95 52t104 16.5t97.5 -13.5q30 -9 36 -11q12 -4 18 -14.5t2 -23.5l-20 -67q-3 -13 -14.5 -19
t-24.5 -1h-1q-28 10 -57.5 11.5t-60 -7.5t-54.5 -29.5t-39 -59t-15 -90.5q0 -80 33.5 -130.5t110.5 -50.5q13 0 23 13.5t10 27.5v56q0 13 -8.5 21.5t-21.5 8.5h-34q-13 0 -21.5 9t-8.5 22v79z" />
    <glyph glyph-name="h" unicode="h" horiz-adv-x="548" 
d="M317 28v207q0 11 -8 19.5t-19 8.5h-104q-11 0 -19 -8.5t-8 -19.5v-207q0 -11 -8 -19t-19 -8h-105q-11 0 -19 8t-8 19v586q0 11 8 19t19 8h105q10 0 18.5 -8.5t8.5 -18.5v-184q0 -11 8 -19t19 -8h104q11 0 19 8t8 19v184q0 11 8.5 19t19.5 8h104q11 0 19 -8t8 -19v-586
q0 -11 -8 -19t-19 -8h-104q-11 0 -19.5 8t-8.5 19z" />
    <glyph glyph-name="i" unicode="i" horiz-adv-x="225" 
d="M137 1h-122q-6 0 -10.5 4.5t-4.5 10.5v610q0 6 4.5 10.5t10.5 4.5h122q6 0 11 -4.5t5 -10.5v-610q0 -6 -5 -10.5t-11 -4.5z" />
    <glyph glyph-name="j" unicode="j" horiz-adv-x="370" 
d="M14 124q2 8 9 13t15 3q2 0 3 -1q52 -12 77.5 8.5t25.5 55.5v281q0 8 -6.5 14t-14.5 6h-85q-8 0 -14 6t-6 14v96q0 9 6 15t14 6h241q19 0 19 -21v-435q0 -16 -2 -32.5t-13.5 -46t-31 -51t-59.5 -38t-94 -16.5q-26 0 -81 11q-20 4 -16 23z" />
    <glyph glyph-name="k" unicode="k" horiz-adv-x="517" 
d="M442 31q6 -10 -0.5 -20t-17.5 -10h-130q-13 0 -19 11l-122 242v-235q0 -18 -19 -18h-115q-19 0 -19 18v603q0 8 5.5 13.5t13.5 5.5h115q8 0 13.5 -5.5t5.5 -13.5v-232l114 239q5 12 19 12h128q11 0 17.5 -9.5t1.5 -20.5l-136 -274q-6 -9 0 -18z" />
    <glyph glyph-name="l" unicode="l" horiz-adv-x="441" 
d="M350 137q8 0 13.5 -5.5t5.5 -13.5v-98q0 -7 -5.5 -12.5t-13.5 -5.5h-209q-2 -1 -7 -1h-116q-18 0 -18 18v603q0 8 5.5 13.5t12.5 5.5h116q7 0 12.5 -5.5t5.5 -13.5v-485h198z" />
    <glyph glyph-name="m" unicode="m" horiz-adv-x="653" 
d="M563 641q7 0 12.5 -5.5t5.5 -13.5v-603q0 -18 -18 -18h-116q-19 0 -19 18v306l-84 -215q-2 -11 -15 -11h-78q-11 0 -16 11l-83 213v-304q0 -18 -18 -18h-116q-18 0 -18 18v603q0 8 5.5 13.5t12.5 5.5h151q13 0 16 -11l101 -271q1 -4 4.5 -4t5.5 4l100 271q5 11 15 11h152
z" />
    <glyph glyph-name="n" unicode="n" horiz-adv-x="541" 
d="M450 641q8 0 13.5 -5.5t5.5 -13.5v-603q0 -18 -19 -18h-115q-19 0 -19 18v4q0 1 -2 3l-162 349v-356q0 -18 -18 -18h-116q-18 0 -18 18v603q0 8 5.5 13.5t12.5 5.5h137q27 0 38 -25l123 -266v272q0 8 6 13.5t13 5.5h115z" />
    <glyph glyph-name="o" unicode="o" 
d="M246 641q60 0 106 -25t71.5 -60.5t41.5 -82.5t21 -83t5 -69q0 -35 -5 -72t-21 -83t-41.5 -81t-71.5 -59t-106 -24q-117 0 -181.5 94.5t-64.5 224.5q0 34 4.5 69.5t20 82.5t41 82.5t72 60.5t108.5 25zM144 321q0 -37 8.5 -74t32.5 -69t61 -32q30 0 51 18t31 47t14 55.5
t4 54.5q0 27 -4 53.5t-14 56t-31 47.5t-51 18q-102 0 -102 -175z" />
    <glyph glyph-name="p" unicode="p" horiz-adv-x="494" 
d="M0 606q0 14 10 24.5t25 10.5h116q62 0 109 -10.5t75.5 -30t47 -41t26.5 -51.5t10.5 -52t2.5 -51q0 -23 -4 -44.5t-18.5 -49.5t-38.5 -48.5t-70 -36.5t-107 -19q-13 -1 -23 -11t-10 -24v-136q0 -14 -10 -24.5t-25 -10.5h-81q-15 0 -25 10.5t-10 24.5v570zM151 368
q0 -16 12 -26.5t28 -8.5q49 7 66 28t17 55q0 75 -82 89q-16 3 -28.5 -7.5t-12.5 -26.5v-103z" />
    <glyph glyph-name="q" unicode="q" 
d="M411 71l40 -90q5 -10 -1 -19.5t-17 -9.5l-107 -1q-13 -2 -18 12l-21 42q-19 -3 -41 -3q-117 0 -181.5 94.5t-64.5 224.5q0 34 4.5 69.5t20 82.5t41 82.5t72 60.5t108.5 25q60 0 106 -25t71.5 -60.5t41.5 -82.5t21 -83t5 -69q0 -63 -18 -132t-62 -118zM144 321
q0 -37 8.5 -74t32.5 -69t61 -32q30 0 51.5 18t31.5 47t14 55.5t4 54.5q0 27 -4 54t-14 56t-31.5 47t-51.5 18q-102 0 -102 -175z" />
    <glyph glyph-name="r" unicode="r" horiz-adv-x="496" 
d="M420 31q6 -10 2 -19.5t-16 -9.5l-106 -1q-14 0 -21 12l-126 193h-1v-170q0 -14 -10.5 -24.5t-24.5 -10.5h-81q-15 0 -25.5 10.5t-10.5 24.5v570q0 14 10.5 24.5t24.5 10.5h117q73 0 126 -16t80 -38.5t42.5 -58t18.5 -61.5t3 -62q0 -134 -127 -179zM152 471v-103
q0 -16 12 -26.5t28 -8.5q49 7 66 28t17 55q0 75 -82 89q-16 3 -28.5 -7.5t-12.5 -26.5z" />
    <glyph glyph-name="s" unicode="s" horiz-adv-x="493" 
d="M263 389q62 -23 93 -48q65 -54 65 -140q0 -50 -22 -88t-52 -58.5t-67 -33t-61 -16t-41 -3.5q-58 0 -94 8q-30 7 -67 20q-9 3 -13.5 11t-1.5 18l20 85q2 11 12 16.5t20 1.5q81 -26 113 -26q44 0 68 14q24 12 24 45q0 50 -107 79l-2 1q-59 21 -88 49q-48 47 -48 126
q0 50 19.5 87.5t46 56.5t60 30.5t53.5 14t36 2.5q35 0 84 -9q8 -1 19 -4t25 -7t20 -6q23 -9 17 -30l-22 -75q-3 -10 -12 -15t-19 -1l-28 10q-13 4 -24 7.5t-35.5 7t-41.5 0.5t-31 -17t-14 -39t17 -36q17 -14 38 -21z" />
    <glyph glyph-name="t" unicode="t" horiz-adv-x="528" 
d="M437 641q7 0 13 -5.5t6 -13.5v-98q0 -7 -5.5 -12.5t-13.5 -5.5h-133v-487q0 -18 -18 -18h-116q-19 0 -19 18v487h-132q-18 0 -18 18v98q0 19 18 19h418z" />
    <glyph glyph-name="u" unicode="u" horiz-adv-x="545" 
d="M445 641q12 0 20 -8t8 -19v-352q-2 -62 -13 -105.5t-36 -80.5t-72 -55.5t-116 -18.5q-120 0 -176 59.5t-60 212.5v23v317q0 11 8 19t19 8h99q10 0 18.5 -8.5t8.5 -18.5v-351q2 -66 19 -95t64 -29q49 0 65.5 26.5t18.5 86.5v362q0 11 8 19t20 8h97z" />
    <glyph glyph-name="v" unicode="v" horiz-adv-x="619" 
d="M396 629q3 12 15 12h119q8 0 13 -6.5t3 -14.5l-189 -597q-7 -22 -30 -22h-107q-22 0 -30 22l-188 597q-3 7 2.5 14t13.5 7h118q13 0 15 -12l107 -337q4 -11 16 -11t15 11z" />
    <glyph glyph-name="w" unicode="w" horiz-adv-x="736" 
d="M646 641q7 0 12.5 -5.5t4.5 -13.5l-57 -603q-2 -12 -13 -17l1 -1h-141q-13 0 -16 11l-100 271q-1 3 -5 3t-6 -3l-99 -271q-5 -11 -16 -11h-141l1 2q-11 3 -13 16l-57 603q-1 8 4.5 13.5t12.5 5.5h115q8 0 14 -5.5t7 -13.5l30 -328l94 237q4 11 15 11h78q12 0 16 -11
l92 -237l31 328q1 8 7 13.5t13 5.5h116z" />
    <glyph glyph-name="x" unicode="x" horiz-adv-x="559" 
d="M484 31q5 -10 -1 -20t-17 -10h-130q-14 0 -19 11l-73 144l-73 -144q-6 -11 -19 -11h-130q-11 0 -17 10t-1 20l146 288q4 9 0 18l-136 274q-5 10 1 20t17 10h129q13 0 18 -12l65 -135l65 135q5 12 18 12h129q11 0 17 -10t1 -20l-136 -274q-3 -9 0 -18z" />
    <glyph glyph-name="y" unicode="y" horiz-adv-x="560" 
d="M472 642q8 0 12.5 -7t1.5 -15l-165 -379q-1 -1 -1 -2v-220q0 -18 -18 -18h-116q-19 0 -19 18v220v2l-165 379q-4 8 0.5 15t12.5 7h114q9 0 14 -10l86 -208q5 -9 15 -9t14 9l87 208q3 10 14 10h113z" />
    <glyph glyph-name="z" unicode="z" horiz-adv-x="548" 
d="M455 641q11 0 17 -10t1 -20l-240 -475h202q7 0 13 -6t6 -13v-97q0 -8 -5.5 -13.5t-13.5 -5.5h-414q-11 0 -17 10t-1 20l242 475h-206q-8 0 -13.5 5.5t-5.5 12.5v98q0 8 6 13.5t13 5.5h416z" />
    <glyph glyph-name="braceleft" unicode="{" horiz-adv-x="405" 
d="M247 441q0 -24 -16 -42t-39 -21v-1q23 -2 39 -20t16 -42v-136q0 -7 5.5 -12.5t12.5 -5.5h40q11 0 19.5 -8t8.5 -19v-105q0 -11 -8.5 -19t-19.5 -8h-113q-74 0 -99 47t-25 173v56q0 7 -1.5 13.5t-3.5 11t-6.5 9l-6.5 6.5t-9 5.5t-8.5 4t-9.5 3.5l-8 3q-15 5 -15 22v44
q0 16 15 21q35 13 45 26q8 12 8 30v56q0 127 25 174t99 47h113q11 0 19.5 -8t8.5 -19v-105q0 -11 -8.5 -19t-19.5 -8h-40q-7 0 -12.5 -5.5t-5.5 -12.5v-136z" />
    <glyph glyph-name="bar" unicode="|" horiz-adv-x="283" 
d="M161 1h-143q-8 0 -13 5.5t-5 12.5v717q0 8 5 13t13 5h143q8 0 13.5 -5.5t5.5 -12.5v-717q0 -7 -5.5 -12.5t-13.5 -5.5z" />
    <glyph glyph-name="braceright" unicode="}" horiz-adv-x="405" 
d="M333 378v-22q0 -16 -15 -21q-35 -13 -45 -26q-8 -12 -8 -30v-56q0 -127 -25 -174t-99 -47h-113q-11 0 -19.5 8t-8.5 19v105q0 11 8.5 19t19.5 8h40q8 0 13 5.5t5 12.5v136q0 24 16 42t39 21v1q-23 2 -39 20t-16 42v136q0 7 -5 12.5t-13 5.5h-40q-11 0 -19.5 8t-8.5 19
v105q0 11 8.5 19t19.5 8h113q74 0 99 -47t25 -173v-56q0 -7 1.5 -13.5t3.5 -11t6.5 -9l6.5 -6.5t9 -5.5t8.5 -4t9.5 -3.5l8 -3q15 -5 15 -22l-1 -22h1z" />
    <glyph glyph-name="asciitilde" unicode="~" horiz-adv-x="629" 
d="M531 319q-46 -23 -100.5 -21t-101 19.5t-101 33.5t-100.5 20t-101 -21q-11 -6 -18.5 -3t-7.5 14v71q0 29 26 43q46 23 100.5 21t101 -19.5t101 -33.5t100.5 -20t101 21q26 12 26 -12v-71q0 -28 -26 -42z" />
    <glyph glyph-name="cent" unicode="&#xa2;" horiz-adv-x="530" 
d="M216 -49q-16 0 -16 18v51q-88 28 -144 100t-56 198q0 262 200 311v49q0 18 16 18h127q7 0 12 -5.5t5 -12.5v-44q2 0 5 -0.5t4.5 -1t2.5 -0.5q19 -1 59 -16q10 -3 15 -12t2 -19l-21 -77q-4 -10 -13.5 -15.5t-19.5 -2.5l-6 2q-3 1 -13 3l-15 3v-359q0 1 2 1h3q15 3 35 10
q11 3 20.5 -2t12.5 -15l23 -79q4 -10 -1 -19t-16 -13l-22 -7q-24 -8 -57 -11v-35q0 -7 -5 -12.5t-12 -5.5h-127zM161 318q0 -68 39 -118v253q-41 -52 -39 -135z" />
    <glyph glyph-name="yen" unicode="&#xa5;" horiz-adv-x="646" 
d="M75 327q0 6 6.5 10.5t15.5 4.5h73l-168 388q-4 9 1 17t15 8h134q11 0 16 -11l102 -245q4 -11 16.5 -11t17.5 11l102 245q3 11 16 11h133q10 0 15.5 -8t1.5 -17l-169 -388h78q9 0 15.5 -4.5t6.5 -10.5v-74q0 -6 -6.5 -10.5t-15.5 -4.5h-104v-39h104q9 0 15.5 -4.5
t6.5 -11.5v-73q0 -15 -22 -15h-104v-73q0 -9 -6.5 -15t-15.5 -6h-136q-9 0 -15.5 6t-6.5 15v73h-100q-22 0 -22 15v73q0 7 6.5 11.5t15.5 4.5h100v39h-100q-9 0 -15.5 4.5t-6.5 10.5v74z" />
    <glyph glyph-name="dieresis" unicode="&#xa8;" horiz-adv-x="498" 
d="M129 867q0 25 16.5 42t41.5 17t42 -17t17 -42t-17 -41.5t-42 -16.5t-41.5 16.5t-16.5 41.5zM309 867q0 25 16.5 42t41.5 17t42 -17t17 -42t-17 -41.5t-42 -16.5t-41.5 16.5t-16.5 41.5z" />
    <glyph glyph-name="copyright" unicode="&#xa9;" horiz-adv-x="384" 
d="M301 714q11 -30 11 -60q0 -31 -11 -61q-16 -35 -34 -51q-23 -22 -50 -32q-29 -13 -60 -13q-34 0 -61 13q-27 10 -51 32q-18 16 -34 51q-11 30 -11 61q0 30 11 60q17 34 34 50q16 18 51 34q30 11 61 11q29 0 60 -11q34 -17 50 -34q17 -16 34 -50zM157 532q50 0 85 36
t35 86t-35 85t-85 35q-52 0 -87 -35t-35 -85q0 -51 35.5 -86.5t86.5 -35.5zM128 655q0 26 15 43t51 7h2q7 -2 10 5l6 22q2 7 -5 10q-12 4 -17 4q-5 1 -14.5 2.5t-27 -1t-31.5 -10.5t-25 -29t-11 -53q0 -34 15 -56t35 -28t40.5 -8.5t31.5 3.5l6 2q8 4 5 10l-6 23q-3 7 -10 5
q-2 0 -5.5 -1.5t-4.5 -1.5q-24 -5 -42 10.5t-18 41.5z" />
    <glyph glyph-name="guillemotleft" unicode="&#xab;" horiz-adv-x="537" 
d="M225 544q0 -42 -17 -57l-105 -100l105 -101q17 -15 17 -57v-110q0 -31 -12 -30q-3 1 -5 3l-192 182q-12 12 -15 47q-1 2 -1 10v111q0 8 1 10q3 35 15 47l192 182q11 10 16 -11q1 -7 1 -16v-110zM465 544q0 -42 -17 -57l-105 -100l105 -101q17 -15 17 -57v-110
q0 -31 -12 -30l-5 3l-192 182q-12 12 -15 47q-1 2 -1 10v111q0 8 1 10q3 35 15 47l192 182q11 10 16 -11q1 -7 1 -16v-110z" />
    <glyph glyph-name="registered" unicode="&#xae;" horiz-adv-x="384" 
d="M301 714q11 -30 11 -60q0 -31 -11 -61q-16 -35 -34 -51q-23 -22 -50 -32q-29 -13 -60 -13q-34 0 -61 13q-27 10 -51 32q-18 16 -34 51q-11 30 -11 61q0 30 11 60q17 34 34 50q16 18 51 34q30 11 61 11q29 0 60 -11q34 -17 50 -34q17 -16 34 -50zM157 532q50 0 85 36
t35 86t-35 85t-85 35q-52 0 -87 -35t-35 -85q0 -51 35.5 -86.5t86.5 -35.5zM183 631l37 -57q4 -9 -4 -9h-30q-5 0 -8 3l-37 57v-50q0 -10 -10 -10h-24q-10 0 -10 10v167q0 10 10 10h34q27 0 44 -6t24.5 -17.5t9.5 -21.5t2 -23q0 -40 -38 -53zM154 661q23 5 23 25
q0 22 -23 26q-4 1 -8.5 -2t-4.5 -7v-30q0 -12 13 -12z" />
    <glyph glyph-name="plusminus" unicode="&#xb1;" horiz-adv-x="538" 
d="M426 564q9 0 15.5 -6.5t6.5 -15.5v-103q0 -9 -6.5 -15t-15.5 -6h-121v-126q0 -9 -6.5 -15t-15.5 -6h-103q-9 0 -15 6t-6 15v126h-121q-9 0 -15.5 6t-6.5 15v103q0 9 6.5 15.5t15.5 6.5h121v117q0 9 6 15t15 6h103q9 0 15.5 -6t6.5 -15v-117h121zM4 216q0 9 6.5 15.5
t15.5 6.5h418q9 0 15.5 -6.5t6.5 -15.5v-103q0 -9 -6.5 -15t-15.5 -6h-418q-9 0 -15.5 6t-6.5 15v103z" />
    <glyph glyph-name="acute" unicode="&#xb4;" horiz-adv-x="319" 
d="M80 857q7 15 23 15l119 -1q14 0 21 -11t1 -24l-82 -172q-6 -14 -22 -14l-115 1q-14 0 -21 11.5t-1 23.5z" />
    <glyph glyph-name="cedilla" unicode="&#xb8;" horiz-adv-x="457" 
d="M7 -137q19 22 52 22q20 0 44 -22q4 -9 25 -16l-2 1q42 -10 63 -10q34 0 70 13l-1 -1q12 3 19 12q0 8 -4.5 13t-14 7t-16.5 2t-19 -0.5t-14 -0.5q-16 0 -29 10.5t-13 26.5v85q0 11 4 18.5t14.5 10t15 3.5t20.5 0.5t17 -0.5q10 0 16.5 -3.5t10 -7t5 -12.5t2 -13.5t0 -16
t-0.5 -14.5q44 -12 79 -40t35 -68q0 -42 -36 -70t-77.5 -38t-82.5 -10q-23 0 -52.5 5t-61.5 15.5t-53.5 30.5t-21.5 46q0 13 7 21v1z" />
    <glyph glyph-name="questiondown" unicode="&#xbf;" horiz-adv-x="521" 
d="M224 591q-9 0 -15.5 6.5t-6.5 15.5v120q0 9 6.5 15t15.5 6h136q9 0 15.5 -6t6.5 -15v-120q0 -9 -6.5 -15.5t-15.5 -6.5h-136zM250 1q-18 0 -42 3t-63.5 16.5t-70.5 35.5t-54 66t-23 103q0 81 60 142.5t145 77.5v67q0 9 6.5 15t15.5 6h136q9 0 15.5 -6t6.5 -15v-160
q0 -12 -8 -20.5t-20 -10.5q-131 -11 -169 -82v1q-7 -16 -7 -30q0 -30 16.5 -46t36.5 -19.5t48.5 0.5t42.5 8t27 9q4 2 9.5 4t12.5 4.5t11 3.5q12 5 23 -0.5t15 -17.5l25 -89q7 -26 -19 -35q-62 -18 -76 -21q-53 -10 -100 -10z" />
    <glyph glyph-name="Agrave" unicode="&#xc0;" horiz-adv-x="673" 
d="M385 835q5 -9 -1.5 -17.5t-18.5 -8.5l-105 -1q-15 0 -20 11l-75 128q-6 10 0.5 18t19.5 8l109 1q15 0 21 -11zM367 754q28 0 35 -27l197 -678q5 -17 -6 -32t-29 -15l-103 -1q-13 0 -23 8t-13 20l-23 92q-3 12 -13 20t-23 7l-141 -1q-13 0 -23 -8t-13 -20l-22 -91
q-9 -28 -37 -28l-92 2q-19 0 -30 14.5t-6 32.5l200 678q8 27 36 27h129zM243 332q-4 -18 7 -32t29 -14l35 -1q18 0 29.5 14.5t6.5 31.5l-17 88q-7 29 -36 29t-36 -29z" />
    <glyph glyph-name="Aacute" unicode="&#xc1;" horiz-adv-x="673" 
d="M291 965q6 11 21 11l106 -1q12 0 18.5 -8t0.5 -18l-73 -128q-5 -11 -19 -11l-103 1q-12 0 -18 8.5t-1 17.5zM367 754q28 0 35 -27l197 -678q5 -17 -6 -32t-29 -15l-103 -1q-13 0 -23 8t-13 20l-23 92q-3 12 -13 20t-23 7l-141 -1q-13 0 -23 -8t-13 -20l-22 -91
q-9 -28 -37 -28l-92 2q-19 0 -30 14.5t-6 32.5l200 678q8 27 36 27h129zM243 332q-4 -18 7 -32t29 -14l35 -1q18 0 29.5 14.5t6.5 31.5l-17 88q-7 29 -36 29t-36 -29z" />
    <glyph glyph-name="Acircumflex" unicode="&#xc2;" horiz-adv-x="673" 
d="M341 963q23 0 28 -12l107 -130q2 -6 -2 -9.5t-13 -3.5h-66q-24 0 -34 13l-60 72l-57 -72q-10 -13 -34 -13h-65q-10 0 -14.5 3.5t-1.5 9.5l107 130q5 12 28 12q0 1 5 1h65q7 0 7 -1zM367 754q28 0 35 -27l197 -678q5 -17 -6 -32t-29 -15l-103 -1q-13 0 -23 8t-13 20
l-23 92q-3 12 -13 20t-23 7l-141 -1q-13 0 -23 -8t-13 -20l-22 -91q-9 -28 -37 -28l-92 2q-19 0 -30 14.5t-6 32.5l200 678q8 27 36 27h129zM243 332q-4 -18 7 -32t29 -14l35 -1q18 0 29.5 14.5t6.5 31.5l-17 88q-7 29 -36 29t-36 -29z" />
    <glyph glyph-name="Atilde" unicode="&#xc3;" horiz-adv-x="673" 
d="M468 828q-31 -16 -67 -14.5t-66.5 14.5t-66.5 24t-66.5 14t-66.5 -15q-7 -5 -12.5 -2.5t-5.5 10.5v51q0 21 18 32q31 16 67 14.5t66.5 -14t66.5 -24t66.5 -14.5t66.5 15q17 9 17 -9v-51q0 -21 -17 -31zM367 754q28 0 35 -27l197 -678q5 -17 -6 -32t-29 -15l-103 -1
q-13 0 -23 8t-13 20l-23 92q-3 12 -13 20t-23 7l-141 -1q-13 0 -23 -8t-13 -20l-22 -91q-9 -28 -37 -28l-92 2q-19 0 -30 14.5t-6 32.5l200 678q8 27 36 27h129zM243 332q-4 -18 7 -32t29 -14l35 -1q18 0 29.5 14.5t6.5 31.5l-17 88q-7 29 -36 29t-36 -29z" />
    <glyph glyph-name="Adieresis" unicode="&#xc4;" horiz-adv-x="673" 
d="M121 878q0 30 20.5 51t50.5 21t51 -21t21 -51t-21 -50.5t-51 -20.5q-31 0 -51 20t-20 51zM341 878q0 30 20.5 51t50.5 21t51 -21t21 -51t-21 -50.5t-51 -20.5q-31 0 -51 20t-20 51zM367 754q28 0 35 -27l197 -678q5 -17 -6 -32t-29 -15l-103 -1q-13 0 -23 8t-13 20
l-23 92q-3 12 -13 20t-23 7l-141 -1q-13 0 -23 -8t-13 -20l-22 -91q-9 -28 -37 -28l-92 2q-19 0 -30 14.5t-6 32.5l200 678q8 27 36 27h129zM243 332q-4 -18 7 -32t29 -14l35 -1q18 0 29.5 14.5t6.5 31.5l-17 88q-7 29 -36 29t-36 -29z" />
    <glyph glyph-name="Aring" unicode="&#xc5;" horiz-adv-x="673" 
d="M299 1000q40 0 68 -28t28 -68t-28 -68.5t-68 -28.5t-68 28.5t-28 68.5t28 68t68 28zM299 867q15 0 26 10.5t11 26.5q0 15 -11 25.5t-26 10.5t-25.5 -10.5t-10.5 -25.5q0 -16 10.5 -26.5t25.5 -10.5zM367 754q28 0 35 -27l197 -678q5 -17 -6 -32t-29 -15l-103 -1
q-13 0 -23 8t-13 20l-23 92q-3 12 -13 20t-23 7l-141 -1q-13 0 -23 -8t-13 -20l-22 -91q-9 -28 -37 -28l-92 2q-19 0 -30 14.5t-6 32.5l200 678q8 27 36 27h129zM243 332q-4 -18 7 -32t29 -14l35 -1q18 0 29.5 14.5t6.5 31.5l-17 88q-7 29 -36 29t-36 -29z" />
    <glyph glyph-name="AE" unicode="&#xc6;" horiz-adv-x="944" 
d="M367 754q28 0 35 -27l22 -76v68q0 14 10.5 24.5t24.5 10.5h377q15 0 25.5 -10.5t10.5 -24.5v-93q0 -15 -10.5 -25t-25.5 -10h-192q-14 0 -24.5 -10.5t-10.5 -25.5v-44q0 -15 10.5 -25t24.5 -10h132q14 0 24.5 -10.5t10.5 -25.5v-92q0 -15 -10.5 -25t-24.5 -10h-132
q-14 0 -24.5 -10.5t-10.5 -25.5v-78q0 -14 10.5 -24.5t24.5 -10.5h192q15 0 25.5 -10.5t10.5 -24.5v-92q0 -14 -10.5 -24.5t-25.5 -10.5l-375 -1q-19 0 -29 13v1h-1l-2 2q0 1 -1 3q-4 6 -4 12l-22 89q-3 12 -13 20t-23 7l-141 -1q-13 0 -23 -8t-13 -20l-22 -91
q-9 -28 -37 -28l-92 2q-19 0 -30 14.5t-6 32.5l200 678q8 27 36 27h129zM243 332q-4 -18 7 -32t29 -14l35 -1q18 0 29.5 14.5t6.5 31.5l-17 88q-7 29 -36 29t-36 -29z" />
    <glyph glyph-name="Ccedilla" unicode="&#xc7;" horiz-adv-x="611" 
d="M80 -127q19 22 52 22q20 0 44 -22q4 -9 25 -16l-2 1q42 -10 63 -10q34 0 70 13l-1 -1q12 3 19 12q0 8 -4.5 13t-14 7t-16.5 2t-19 -0.5t-14 -0.5q-16 0 -29 10.5t-13 26.5v92q-105 32 -172.5 117t-67.5 235q0 74 14.5 133.5t36.5 99t57 68t64.5 44t71.5 23.5t67 10
t60.5 -0.5t43 -3.5t23.5 -4q25 -3 69 -19q12 -4 18 -14.5t2 -22.5l-25 -90q-4 -12 -15.5 -18.5t-23.5 -2.5q-6 2 -7 2q-54 13 -95.5 13.5t-71 -15.5t-49 -37t-31 -51t-16 -58t-4.5 -57q1 -105 73.5 -166t167.5 -43q4 1 11 2.5t16 4.5t14 4q13 4 24 -2t15 -18l27 -92
q4 -12 -2 -22.5t-18 -15.5l-26 -8q-60 -19 -147 -15v-23q44 -12 79 -40t35 -68q0 -42 -36 -70t-77.5 -38t-82.5 -10q-23 0 -52.5 5t-61.5 15.5t-53.5 30.5t-21.5 46q0 13 7 21v1z" />
    <glyph glyph-name="Egrave" unicode="&#xc8;" horiz-adv-x="507" 
d="M298 835q5 -9 -1.5 -17.5t-18.5 -8.5l-105 -1q-15 0 -20 11l-75 128q-6 10 0.5 18t19.5 8l109 1q15 0 21 -11zM352 313q14 0 24.5 10t10.5 25v92q0 15 -10.5 25.5t-24.5 10.5h-132q-14 0 -24.5 10t-10.5 25v44q0 15 10.5 25.5t24.5 10.5h192q15 0 25.5 10t10.5 25v93
q0 14 -10.5 24.5t-25.5 10.5h-377q-14 0 -24.5 -10.5t-10.5 -24.5v-682q0 -14 10.5 -24.5t24.5 -10.5h377q15 0 25.5 10.5t10.5 24.5v92q0 14 -10.5 24.5t-25.5 10.5h-192q-14 0 -24.5 10.5t-10.5 24.5v78q0 15 10.5 25.5t24.5 10.5h132z" />
    <glyph glyph-name="Eacute" unicode="&#xc9;" horiz-adv-x="507" 
d="M208 965q6 11 21 11l106 -1q12 0 18.5 -8t0.5 -18l-73 -128q-5 -11 -19 -11l-103 1q-12 0 -18 8.5t-1 17.5zM352 313q14 0 24.5 10t10.5 25v92q0 15 -10.5 25.5t-24.5 10.5h-132q-14 0 -24.5 10t-10.5 25v44q0 15 10.5 25.5t24.5 10.5h192q15 0 25.5 10t10.5 25v93
q0 14 -10.5 24.5t-25.5 10.5h-377q-14 0 -24.5 -10.5t-10.5 -24.5v-682q0 -14 10.5 -24.5t24.5 -10.5h377q15 0 25.5 10.5t10.5 24.5v92q0 14 -10.5 24.5t-25.5 10.5h-192q-14 0 -24.5 10.5t-10.5 24.5v78q0 15 10.5 25.5t24.5 10.5h132z" />
    <glyph glyph-name="Ecircumflex" unicode="&#xca;" horiz-adv-x="507" 
d="M270 963q23 0 28 -12l107 -130q2 -6 -2 -9.5t-13 -3.5h-66q-24 0 -34 13l-60 72l-57 -72q-10 -13 -34 -13h-65q-10 0 -14.5 3.5t-1.5 9.5l107 130q5 12 28 12q0 1 5 1h65q7 0 7 -1zM220 313q-14 0 -24.5 -10.5t-10.5 -25.5v-78q0 -14 10.5 -24.5t24.5 -10.5h192
q15 0 25.5 -10.5t10.5 -24.5v-92q0 -14 -10.5 -24.5t-25.5 -10.5h-377q-14 0 -24.5 10.5t-10.5 24.5v682q0 14 10.5 24.5t24.5 10.5h377q15 0 25.5 -10.5t10.5 -24.5v-93q0 -15 -10.5 -25t-25.5 -10h-192q-14 0 -24.5 -10.5t-10.5 -25.5v-44q0 -15 10.5 -25t24.5 -10h132
q14 0 24.5 -10.5t10.5 -25.5v-92q0 -15 -10.5 -25t-24.5 -10h-132z" />
    <glyph glyph-name="Edieresis" unicode="&#xcb;" horiz-adv-x="507" 
d="M48 878q0 30 20.5 51t50.5 21t51 -21t21 -51t-21 -50.5t-51 -20.5q-31 0 -51 20t-20 51zM268 878q0 30 20.5 51t50.5 21t51 -21t21 -51t-21 -50.5t-51 -20.5q-31 0 -51 20t-20 51zM352 313q14 0 24.5 10t10.5 25v92q0 15 -10.5 25.5t-24.5 10.5h-132q-14 0 -24.5 10
t-10.5 25v44q0 15 10.5 25.5t24.5 10.5h192q15 0 25.5 10t10.5 25v93q0 14 -10.5 24.5t-25.5 10.5h-377q-14 0 -24.5 -10.5t-10.5 -24.5v-682q0 -14 10.5 -24.5t24.5 -10.5h377q15 0 25.5 10.5t10.5 24.5v92q0 14 -10.5 24.5t-25.5 10.5h-192q-14 0 -24.5 10.5t-10.5 24.5
v78q0 15 10.5 25.5t24.5 10.5h132z" />
    <glyph glyph-name="Igrave" unicode="&#xcc;" horiz-adv-x="253" 
d="M170 835q5 -9 -1.5 -17.5t-18.5 -8.5l-105 -1q-15 0 -20 11l-75 128q-6 10 0.5 18t19.5 8l109 1q15 0 21 -11zM161 1q8 0 13.5 5.5t5.5 12.5v717q0 7 -5.5 12.5t-13.5 5.5h-143q-8 0 -13 -5t-5 -13v-717q0 -7 5 -12.5t13 -5.5h143z" />
    <glyph glyph-name="Iacute" unicode="&#xcd;" horiz-adv-x="253" 
d="M54 965q6 11 21 11l106 -1q12 0 18.5 -8t0.5 -18l-73 -128q-5 -11 -19 -11l-103 1q-12 0 -18 8.5t-1 17.5zM161 1q8 0 13.5 5.5t5.5 12.5v717q0 7 -5.5 12.5t-13.5 5.5h-143q-8 0 -13 -5t-5 -13v-717q0 -7 5 -12.5t13 -5.5h143z" />
    <glyph glyph-name="Icircumflex" unicode="&#xce;" horiz-adv-x="253" 
d="M134 963q23 0 28 -12l107 -130q2 -6 -2 -9.5t-13 -3.5h-66q-24 0 -34 13l-60 72l-57 -72q-10 -13 -34 -13h-65q-10 0 -14.5 3.5t-1.5 9.5l107 130q5 12 28 12q0 1 5 1h65q7 0 7 -1zM18 1q-8 0 -13 5.5t-5 12.5v717q0 8 5 13t13 5h143q8 0 13.5 -5.5t5.5 -12.5v-717
q0 -7 -5.5 -12.5t-13.5 -5.5h-143z" />
    <glyph glyph-name="Idieresis" unicode="&#xcf;" horiz-adv-x="253" 
d="M-95 878q0 30 20.5 51t50.5 21t51 -21t21 -51t-21 -50.5t-51 -20.5q-31 0 -51 20t-20 51zM125 878q0 30 20.5 51t50.5 21t51 -21t21 -51t-21 -50.5t-51 -20.5q-31 0 -51 20t-20 51zM161 1q8 0 13.5 5.5t5.5 12.5v717q0 7 -5.5 12.5t-13.5 5.5h-143q-8 0 -13 -5t-5 -13
v-717q0 -7 5 -12.5t13 -5.5h143z" />
    <glyph glyph-name="Eth" unicode="&#xd0;" horiz-adv-x="682" 
d="M-94 415q0 9 8 16t19 7h67v287q0 12 8.5 20.5t19.5 8.5q57 0 110 0.5t101.5 -3t91.5 -9t80.5 -18t68.5 -31.5t55 -48t41 -67.5t25.5 -90.5t8.5 -117q0 -69 -14.5 -125.5t-40.5 -94t-61.5 -66t-77 -43.5t-87 -25.5t-92 -12t-92 -3.5t-86.5 1q-21 1 -31 1q-12 0 -20 8.5
t-8 19.5v272h-67q-11 0 -19 6t-8 15v92zM185 180q0 -13 9 -21.5t21 -7.5q42 2 74.5 11t54 20t36 30.5t21.5 34.5t11 41.5t4.5 41t0.5 42.5v7q0 30 -0.5 45t-4 41.5t-11 40.5t-22 33t-36 29.5t-54 18.5t-74.5 10q-12 1 -21 -7.5t-9 -20.5v-131h98q11 0 18.5 -7t7.5 -16v-92
q0 -9 -7.5 -15t-18.5 -6h-98v-122z" />
    <glyph glyph-name="Ntilde" unicode="&#xd1;" horiz-adv-x="637" 
d="M468 828q-31 -16 -67 -14.5t-66.5 14.5t-66.5 24t-66.5 14t-66.5 -15q-7 -5 -12.5 -2.5t-5.5 10.5v51q0 21 18 32q31 16 67 14.5t66.5 -14t66.5 -24t66.5 -14.5t66.5 15q17 9 17 -9v-51q0 -21 -17 -31zM530 754q9 0 15.5 -6.5t6.5 -15.5v-710q0 -9 -6.5 -15t-15.5 -6
h-136q-9 0 -15.5 6t-6.5 15v5l-2 4l-191 410v-419q0 -9 -6 -15t-15 -6h-137q-9 0 -15 6t-6 15v710q0 9 6 15.5t15 6.5h91h70q32 0 45 -29l145 -313v320q0 9 6.5 15.5t15.5 6.5h136z" />
    <glyph glyph-name="Ograve" unicode="&#xd2;" horiz-adv-x="656" 
d="M397 837q5 -9 -1.5 -17.5t-18.5 -8.5l-105 -1q-15 0 -20 11l-75 128q-6 10 0.5 18t19.5 8l109 1q15 0 21 -11zM289 754q71 0 125.5 -29.5t84.5 -71.5t49 -96.5t24.5 -97t5.5 -81.5q0 -42 -6 -85.5t-25 -97.5t-49 -95t-84 -69.5t-125 -28.5q-70 0 -126.5 32t-91.5 85.5
t-53 120t-18 138.5q0 32 4 66t14 79t31 84t51.5 73t79 54t109.5 20zM170 378q0 -43 9.5 -87t38 -81.5t71.5 -37.5q36 0 61 21t36.5 55t16 65.5t4.5 64.5q0 32 -4.5 63.5t-16 66t-36.5 55.5t-61 21q-28 0 -50 -12t-34 -33.5t-20 -42.5t-11 -48.5t-3.5 -40.5t-0.5 -29z" />
    <glyph glyph-name="Oacute" unicode="&#xd3;" horiz-adv-x="656" 
d="M246 965q6 11 21 11l106 -1q12 0 18.5 -8t0.5 -18l-73 -128q-5 -11 -19 -11l-103 1q-12 0 -18 8.5t-1 17.5zM289 754q71 0 125.5 -29.5t84.5 -71.5t49 -96.5t24.5 -97t5.5 -81.5q0 -42 -6 -85.5t-25 -97.5t-49 -95t-84 -69.5t-125 -28.5q-70 0 -126.5 32t-91.5 85.5
t-53 120t-18 138.5q0 32 4 66t14 79t31 84t51.5 73t79 54t109.5 20zM170 378q0 -43 9.5 -87t38 -81.5t71.5 -37.5q36 0 61 21t36.5 55t16 65.5t4.5 64.5q0 32 -4.5 63.5t-16 66t-36.5 55.5t-61 21q-28 0 -50 -12t-34 -33.5t-20 -42.5t-11 -48.5t-3.5 -40.5t-0.5 -29z" />
    <glyph glyph-name="Ocircumflex" unicode="&#xd4;" horiz-adv-x="656" 
d="M326 963q23 0 28 -12l107 -130q2 -6 -2 -9.5t-13 -3.5h-66q-24 0 -34 13l-60 72l-57 -72q-10 -13 -34 -13h-65q-10 0 -14.5 3.5t-1.5 9.5l107 130q5 12 28 12q0 1 5 1h65q7 0 7 -1zM289 754q71 0 125.5 -29.5t84.5 -71.5t49 -96.5t24.5 -97t5.5 -81.5q0 -42 -6 -85.5
t-25 -97.5t-49 -95t-84 -69.5t-125 -28.5q-70 0 -126.5 32t-91.5 85.5t-53 120t-18 138.5q0 32 4 66t14 79t31 84t51.5 73t79 54t109.5 20zM170 378q0 -43 9.5 -87t38 -81.5t71.5 -37.5q36 0 61 21t36.5 55t16 65.5t4.5 64.5q0 32 -4.5 63.5t-16 66t-36.5 55.5t-61 21
q-28 0 -50 -12t-34 -33.5t-20 -42.5t-11 -48.5t-3.5 -40.5t-0.5 -29z" />
    <glyph glyph-name="Otilde" unicode="&#xd5;" horiz-adv-x="656" 
d="M451 824q-31 -16 -67 -14.5t-66.5 14.5t-66.5 24t-66.5 14t-66.5 -15q-8 -5 -13 -2.5t-5 10.5v51q0 21 18 32q31 17 67 15t66.5 -14.5t66.5 -24t66.5 -14.5t66.5 15q17 9 17 -9v-51q0 -21 -17 -31zM289 754q71 0 125.5 -29.5t84.5 -71.5t49 -96.5t24.5 -97t5.5 -81.5
q0 -42 -6 -85.5t-25 -97.5t-49 -95t-84 -69.5t-125 -28.5q-70 0 -126.5 32t-91.5 85.5t-53 120t-18 138.5q0 32 4 66t14 79t31 84t51.5 73t79 54t109.5 20zM170 378q0 -43 9.5 -87t38 -81.5t71.5 -37.5q36 0 61 21t36.5 55t16 65.5t4.5 64.5q0 32 -4.5 63.5t-16 66
t-36.5 55.5t-61 21q-28 0 -50 -12t-34 -33.5t-20 -42.5t-11 -48.5t-3.5 -40.5t-0.5 -29z" />
    <glyph glyph-name="Odieresis" unicode="&#xd6;" horiz-adv-x="656" 
d="M105 881q0 30 20.5 51t50.5 21t51 -21t21 -51t-21 -50.5t-51 -20.5q-31 0 -51 20t-20 51zM325 881q0 30 20.5 51t50.5 21t51 -21t21 -51t-21 -50.5t-51 -20.5q-31 0 -51 20t-20 51zM289 754q71 0 125.5 -29.5t84.5 -71.5t49 -96.5t24.5 -97t5.5 -81.5q0 -42 -6 -85.5
t-25 -97.5t-49 -95t-84 -69.5t-125 -28.5q-70 0 -126.5 32t-91.5 85.5t-53 120t-18 138.5q0 32 4 66t14 79t31 84t51.5 73t79 54t109.5 20zM170 378q0 -43 9.5 -87t38 -81.5t71.5 -37.5q36 0 61 21t36.5 55t16 65.5t4.5 64.5q0 32 -4.5 63.5t-16 66t-36.5 55.5t-61 21
q-28 0 -50 -12t-34 -33.5t-20 -42.5t-11 -48.5t-3.5 -40.5t-0.5 -29z" />
    <glyph glyph-name="multiply" unicode="&#xd7;" horiz-adv-x="518" 
d="M387 291q16 -16 0 -31l-72 -73q-16 -14 -31 1l-85 85l-90 -89q-15 -14 -30 1l-73 73q-14 14 0 29l89 90l-85 85q-15 15 -1 31l73 72q15 16 31 0l86 -85l82 83q15 13 30 0l73 -73q14 -16 1 -31l-83 -82z" />
    <glyph glyph-name="Oslash" unicode="&#xd8;" horiz-adv-x="656" 
d="M65 1q-13 0 -17.5 9.5t2.5 22.5l36 66q-86 107 -86 279q0 32 4 66t14 79t31 84t51.5 73t79 54t109.5 20q77 0 135 -34l1 2q7 13 21.5 22.5t27.5 9.5h116q13 0 17 -9.5t-3 -22.5l-71 -129q45 -98 45 -215q0 -42 -6 -85.5t-25 -97.5t-49 -95t-84 -69.5t-125 -28.5
q-41 0 -77 11q-15 -12 -31 -12h-116zM170 378q0 -51 14 -99l157 289q-22 16 -52 16q-28 0 -50 -12t-34 -33.5t-20 -42.5t-11 -48.5t-3.5 -40.5t-0.5 -29zM306 173q52 9 74.5 63t25.5 123z" />
    <glyph glyph-name="Ugrave" unicode="&#xd9;" horiz-adv-x="641" 
d="M392 834q5 -9 -1.5 -17.5t-18.5 -8.5l-105 -1q-15 0 -20 11l-75 128q-6 10 0.5 18t19.5 8l109 1q15 0 21 -11zM524 754q13 0 22.5 -9.5t9.5 -22.5v-414q-2 -72 -15 -123.5t-42.5 -95t-84.5 -65.5t-136 -22q-141 0 -207 70t-71 250v28v372q0 13 9.5 22.5t22.5 9.5h116
q13 0 22.5 -9.5t9.5 -22.5v-412q2 -78 22.5 -112.5t75.5 -34.5q58 0 77.5 31t21.5 102v426q0 13 9.5 22.5t22.5 9.5h115z" />
    <glyph glyph-name="Uacute" unicode="&#xda;" horiz-adv-x="641" 
d="M245 965q6 11 21 11l106 -1q12 0 18.5 -8t0.5 -18l-73 -128q-5 -11 -19 -11l-103 1q-12 0 -18 8.5t-1 17.5zM524 754q13 0 22.5 -9.5t9.5 -22.5v-414q-2 -72 -15 -123.5t-42.5 -95t-84.5 -65.5t-136 -22q-141 0 -207 70t-71 250v28v372q0 13 9.5 22.5t22.5 9.5h116
q13 0 22.5 -9.5t9.5 -22.5v-412q2 -78 22.5 -112.5t75.5 -34.5q58 0 77.5 31t21.5 102v426q0 13 9.5 22.5t22.5 9.5h115z" />
    <glyph glyph-name="Ucircumflex" unicode="&#xdb;" horiz-adv-x="641" 
d="M323 963q23 0 28 -12l107 -130q2 -6 -2 -9.5t-13 -3.5h-66q-24 0 -34 13l-60 72l-57 -72q-10 -13 -34 -13h-65q-10 0 -14.5 3.5t-1.5 9.5l107 130q5 12 28 12q0 1 5 1h65q7 0 7 -1zM524 754q13 0 22.5 -9.5t9.5 -22.5v-414q-2 -72 -15 -123.5t-42.5 -95t-84.5 -65.5
t-136 -22q-141 0 -207 70t-71 250v28v372q0 13 9.5 22.5t22.5 9.5h116q13 0 22.5 -9.5t9.5 -22.5v-412q2 -78 22.5 -112.5t75.5 -34.5q58 0 77.5 31t21.5 102v426q0 13 9.5 22.5t22.5 9.5h115z" />
    <glyph glyph-name="Udieresis" unicode="&#xdc;" horiz-adv-x="641" 
d="M102 880q0 30 20.5 51t50.5 21t51 -21t21 -51t-21 -50.5t-51 -20.5q-31 0 -51 20t-20 51zM322 880q0 30 20.5 51t50.5 21t51 -21t21 -51t-21 -50.5t-51 -20.5q-31 0 -51 20t-20 51zM524 754q13 0 22.5 -9.5t9.5 -22.5v-414q-2 -72 -15 -123.5t-42.5 -95t-84.5 -65.5
t-136 -22q-141 0 -207 70t-71 250v28v372q0 13 9.5 22.5t22.5 9.5h116q13 0 22.5 -9.5t9.5 -22.5v-412q2 -78 22.5 -112.5t75.5 -34.5q58 0 77.5 31t21.5 102v426q0 13 9.5 22.5t22.5 9.5h115z" />
    <glyph glyph-name="Yacute" unicode="&#xdd;" horiz-adv-x="617" 
d="M250 965q6 11 21 11l106 -1q12 0 18.5 -8t0.5 -18l-73 -128q-5 -11 -19 -11l-103 1q-12 0 -18 8.5t-1 17.5zM555 755q10 0 15.5 -8t1.5 -17l-194 -447q-1 -1 -1 -2v-259q0 -9 -6.5 -15t-15.5 -6h-136q-9 0 -15.5 6t-6.5 15v259q0 1 -0.5 1t-0.5 1l-194 447q-4 9 1 17
t15 8h134q11 0 16 -11l102 -245q4 -11 16.5 -11t17.5 11l102 245q3 11 16 11h133z" />
    <glyph glyph-name="agrave" unicode="&#xe0;" horiz-adv-x="583" 
d="M381 723q6 -10 -1 -19t-21 -9l-116 -1q-16 0 -22 11l-83 138q-6 10 1 19t21 9l120 1q16 0 23 -12zM312 641q23 0 30 -23l167 -576q5 -15 -4.5 -27.5t-25.5 -12.5l-87 -1q-24 0 -31 24l-19 78q-8 25 -31 23l-120 -1q-11 0 -19.5 -7t-10.5 -17l-19 -77q-7 -24 -32 -24
l-78 2q-16 0 -25 12t-5 28l170 576q7 23 30 23h110zM207 282q-4 -15 5.5 -27t24.5 -12l30 -1q15 0 24.5 12.5t5.5 26.5l-14 75q-6 24 -31 24t-30 -24z" />
    <glyph glyph-name="aacute" unicode="&#xe1;" horiz-adv-x="583" 
d="M215 860q7 12 23 12l118 -1q14 0 21 -9t1 -19l-82 -134q-6 -10 -22 -10h-114q-14 0 -21 9t-1 19zM312 641q23 0 30 -23l167 -576q5 -15 -4.5 -27.5t-25.5 -12.5l-87 -1q-24 0 -31 24l-19 78q-8 25 -31 23l-120 -1q-11 0 -19.5 -7t-10.5 -17l-19 -77q-7 -24 -32 -24l-78 2
q-16 0 -25 12t-5 28l170 576q7 23 30 23h110zM207 282q-4 -15 5.5 -27t24.5 -12l30 -1q15 0 24.5 12.5t5.5 26.5l-14 75q-6 24 -31 24t-30 -24z" />
    <glyph glyph-name="acircumflex" unicode="&#xe2;" horiz-adv-x="583" 
d="M290 850q21 0 24 -12l93 -125q3 -6 -1 -9.5t-12 -3.5h-57q-20 0 -30 13l-51 69l-49 -69q-10 -13 -30 -13h-56q-9 0 -12.5 3.5t-1.5 9.5l93 125q3 12 24 12q0 1 4 1h57q5 0 5 -1zM312 641q23 0 30 -23l167 -576q5 -15 -4.5 -27.5t-25.5 -12.5l-87 -1q-24 0 -31 24l-19 78
q-8 25 -31 23l-120 -1q-11 0 -19.5 -7t-10.5 -17l-19 -77q-7 -24 -32 -24l-78 2q-16 0 -25 12t-5 28l170 576q7 23 30 23h110zM207 282q-4 -15 5.5 -27t24.5 -12l30 -1q15 0 24.5 12.5t5.5 26.5l-14 75q-6 24 -31 24t-30 -24z" />
    <glyph glyph-name="atilde" unicode="&#xe3;" horiz-adv-x="583" 
d="M421 717q-30 -17 -65.5 -15t-65.5 15t-65.5 24.5t-65.5 14t-66 -15.5q-7 -5 -12 -2.5t-5 11.5v52q0 21 17 32q30 17 66 15.5t66 -14.5t65.5 -24.5t65.5 -14.5t65 15q17 8 17 -9v-52q0 -22 -17 -32zM312 641q23 0 30 -23l167 -576q5 -15 -4.5 -27.5t-25.5 -12.5l-87 -1
q-24 0 -31 24l-19 78q-8 25 -31 23l-120 -1q-11 0 -19.5 -7t-10.5 -17l-19 -77q-7 -24 -32 -24l-78 2q-16 0 -25 12t-5 28l170 576q7 23 30 23h110zM207 282q-4 -15 5.5 -27t24.5 -12l30 -1q15 0 24.5 12.5t5.5 26.5l-14 75q-6 24 -31 24t-30 -24z" />
    <glyph glyph-name="adieresis" unicode="&#xe4;" horiz-adv-x="583" 
d="M108 760q0 25 16.5 42t41.5 17t42 -17t17 -42t-17 -41.5t-42 -16.5t-41.5 16.5t-16.5 41.5zM288 760q0 25 16.5 42t41.5 17t42 -17t17 -42t-17 -41.5t-42 -16.5t-41.5 16.5t-16.5 41.5zM312 641q23 0 30 -23l167 -576q5 -15 -4.5 -27.5t-25.5 -12.5l-87 -1q-24 0 -31 24
l-19 78q-8 25 -31 23l-120 -1q-11 0 -19.5 -7t-10.5 -17l-19 -77q-7 -24 -32 -24l-78 2q-16 0 -25 12t-5 28l170 576q7 23 30 23h110zM207 282q-4 -15 5.5 -27t24.5 -12l30 -1q15 0 24.5 12.5t5.5 26.5l-14 75q-6 24 -31 24t-30 -24z" />
    <glyph glyph-name="aring" unicode="&#xe5;" horiz-adv-x="583" 
d="M250 893q40 0 68 -28t28 -68t-28 -68.5t-68 -28.5t-68 28.5t-28 68.5t28 68t68 28zM250 760q15 0 26 10.5t11 26.5q0 15 -11 25.5t-26 10.5t-25.5 -10.5t-10.5 -25.5q0 -16 10.5 -26.5t25.5 -10.5zM312 641q23 0 30 -23l167 -576q5 -15 -4.5 -27.5t-25.5 -12.5l-87 -1
q-24 0 -31 24l-19 78q-8 25 -31 23l-120 -1q-11 0 -19.5 -7t-10.5 -17l-19 -77q-7 -24 -32 -24l-78 2q-16 0 -25 12t-5 28l170 576q7 23 30 23h110zM207 282q-4 -15 5.5 -27t24.5 -12l30 -1q15 0 24.5 12.5t5.5 26.5l-14 75q-6 24 -31 24t-30 -24z" />
    <glyph glyph-name="ae" unicode="&#xe6;" horiz-adv-x="810" 
d="M550 266q-12 0 -21 -9t-9 -22v-66q0 -12 9 -21t21 -9h163q13 0 22 -8.5t9 -20.5v-79q0 -12 -9 -20.5t-22 -8.5h-234l-87 -1q-24 0 -31 24l-19 78q-8 25 -31 23l-120 -1q-11 0 -19.5 -7t-10.5 -17l-19 -77q-7 -24 -32 -24l-78 2q-16 0 -25 12t-5 28l170 576q7 23 30 23
h110q23 0 30 -23l21 -73v66q0 12 9 21t21 9h320q13 0 22 -9t9 -21v-79q0 -13 -9 -21.5t-22 -8.5h-163q-12 0 -21 -8.5t-9 -21.5v-38q0 -12 9 -20.5t21 -8.5h112q12 0 21 -9t9 -22v-78q0 -13 -9 -21.5t-21 -8.5h-112zM207 282q-4 -15 5.5 -27t24.5 -12l30 -1q15 0 24.5 12.5
t5.5 26.5l-14 75q-6 24 -31 24t-30 -24z" />
    <glyph glyph-name="egrave" unicode="&#xe8;" horiz-adv-x="453" 
d="M300 730q6 -10 -1 -19t-21 -9l-116 -1q-16 0 -22 11l-83 142q-6 10 1 19.5t21 9.5l120 1q17 0 23 -13zM299 266q12 0 21 8.5t9 21.5v78q0 13 -9 22t-21 9h-112q-12 0 -21 8.5t-9 20.5v38q0 13 9 21.5t21 8.5h163q13 0 22 8.5t9 21.5v79q0 12 -9 21t-22 9h-320
q-12 0 -21 -9t-9 -21v-580q0 -12 9 -20.5t21 -8.5h320q13 0 22 8.5t9 20.5v79q0 12 -9 20.5t-22 8.5h-163q-12 0 -21 9t-9 21v66q0 13 9 22t21 9h112z" />
    <glyph glyph-name="eacute" unicode="&#xe9;" horiz-adv-x="453" 
d="M164 860q7 12 23 12l118 -1q14 0 21 -8.5t1 -18.5l-82 -133q-7 -10 -22 -10h-114q-13 0 -20.5 9t-1.5 18zM299 266q12 0 21 8.5t9 21.5v78q0 13 -9 22t-21 9h-112q-12 0 -21 8.5t-9 20.5v38q0 13 9 21.5t21 8.5h163q13 0 22 8.5t9 21.5v79q0 12 -9 21t-22 9h-320
q-12 0 -21 -9t-9 -21v-580q0 -12 9 -20.5t21 -8.5h320q13 0 22 8.5t9 20.5v79q0 12 -9 20.5t-22 8.5h-163q-12 0 -21 9t-9 21v66q0 13 9 22t21 9h112z" />
    <glyph glyph-name="ecircumflex" unicode="&#xea;" horiz-adv-x="453" 
d="M213 832q18 0 22 -11l88 -113q5 -12 -12 -12h-54q-19 0 -28 12l-49 62l-46 -62q-10 -12 -29 -12h-53q-9 0 -12 3.5t-1 8.5l88 113q4 11 23 11q0 1 4 1h53q6 0 6 -1zM187 266q-12 0 -21 -9t-9 -22v-66q0 -12 9 -21t21 -9h163q13 0 22 -8.5t9 -20.5v-79q0 -12 -9 -20.5
t-22 -8.5h-320q-12 0 -21 8.5t-9 20.5v580q0 12 9 21t21 9h320q13 0 22 -9t9 -21v-79q0 -13 -9 -21.5t-22 -8.5h-163q-12 0 -21 -8.5t-9 -21.5v-38q0 -12 9 -20.5t21 -8.5h112q12 0 21 -9t9 -22v-78q0 -13 -9 -21.5t-21 -8.5h-112z" />
    <glyph glyph-name="edieresis" unicode="&#xeb;" horiz-adv-x="453" 
d="M35 758q0 25 16.5 42t41.5 17t42 -17t17 -42t-17 -41.5t-42 -16.5t-41.5 16.5t-16.5 41.5zM215 758q0 25 16.5 42t41.5 17t42 -17t17 -42t-17 -41.5t-42 -16.5t-41.5 16.5t-16.5 41.5zM299 266q12 0 21 8.5t9 21.5v78q0 13 -9 22t-21 9h-112q-12 0 -21 8.5t-9 20.5v38
q0 13 9 21.5t21 8.5h163q13 0 22 8.5t9 21.5v79q0 12 -9 21t-22 9h-320q-12 0 -21 -9t-9 -21v-580q0 -12 9 -20.5t21 -8.5h320q13 0 22 8.5t9 20.5v79q0 12 -9 20.5t-22 8.5h-163q-12 0 -21 9t-9 21v66q0 13 9 22t21 9h112z" />
    <glyph glyph-name="ntilde" unicode="&#xf1;" horiz-adv-x="541" 
d="M402 713q-37 -21 -83.5 -13.5t-83 26t-83 25.5t-83.5 -14q-17 -10 -17 9v53q0 23 17 33q37 21 83 14t83.5 -25.5t83.5 -26t83 13.5q17 8 17 -9v-53q0 -21 -17 -33zM450 641q8 0 13.5 -5.5t5.5 -13.5v-603q0 -18 -19 -18h-115q-19 0 -19 18v4q0 1 -2 3l-162 349v-356
q0 -18 -18 -18h-116q-18 0 -18 18v603q0 8 5.5 13.5t12.5 5.5h137q27 0 38 -25l123 -266v272q0 8 6 13.5t13 5.5h115z" />
    <glyph glyph-name="ograve" unicode="&#xf2;" 
d="M354 730q5 -10 -1.5 -19t-18.5 -9l-106 -1q-14 0 -20 11l-75 137q-6 10 0.5 19t19.5 9h109q16 0 21 -12zM246 641q60 0 106 -25t71.5 -60.5t41.5 -82.5t21 -83t5 -69q0 -35 -5 -72t-21 -83t-41.5 -81t-71.5 -59t-106 -24q-117 0 -181.5 94.5t-64.5 224.5q0 34 4.5 69.5
t20 82.5t41 82.5t72 60.5t108.5 25zM144 321q0 -37 8.5 -74t32.5 -69t61 -32q30 0 51 18t31 47t14 55.5t4 54.5q0 27 -4 53.5t-14 56t-31 47.5t-51 18q-102 0 -102 -175z" />
    <glyph glyph-name="oacute" unicode="&#xf3;" 
d="M211 860q7 12 22 12l112 -1q13 0 19.5 -8.5t1.5 -18.5l-77 -138q-6 -11 -21 -11l-108 1q-13 0 -20 9t-1 19zM246 641q60 0 106 -25t71.5 -60.5t41.5 -82.5t21 -83t5 -69q0 -35 -5 -72t-21 -83t-41.5 -81t-71.5 -59t-106 -24q-117 0 -181.5 94.5t-64.5 224.5
q0 34 4.5 69.5t20 82.5t41 82.5t72 60.5t108.5 25zM144 321q0 -37 8.5 -74t32.5 -69t61 -32q30 0 51 18t31 47t14 55.5t4 54.5q0 27 -4 53.5t-14 56t-31 47.5t-51 18q-102 0 -102 -175z" />
    <glyph glyph-name="ocircumflex" unicode="&#xf4;" 
d="M283 843q21 0 25 -11l98 -123q5 -13 -13 -13h-61q-21 0 -31 13l-54 68l-52 -68q-10 -13 -31 -13h-60q-10 0 -13.5 3.5t-0.5 9.5l98 123q4 11 25 11q0 1 5 1h59q6 0 6 -1zM246 641q60 0 106 -25t71.5 -60.5t41.5 -82.5t21 -83t5 -69q0 -35 -5 -72t-21 -83t-41.5 -81
t-71.5 -59t-106 -24q-117 0 -181.5 94.5t-64.5 224.5q0 34 4.5 69.5t20 82.5t41 82.5t72 60.5t108.5 25zM144 321q0 -37 8.5 -74t32.5 -69t61 -32q30 0 51 18t31 47t14 55.5t4 54.5q0 27 -4 53.5t-14 56t-31 47.5t-51 18q-102 0 -102 -175z" />
    <glyph glyph-name="otilde" unicode="&#xf5;" 
d="M418 694q-36 -20 -81.5 -13.5t-82 24.5t-82 25t-82.5 -13q-7 -5 -12 -2.5t-5 10.5v51q0 21 17 32q30 17 66 15t66 -14.5t65.5 -24t65.5 -14.5t65 15q17 9 17 -9v-51q0 -21 -17 -31zM246 641q60 0 106 -25t71.5 -60.5t41.5 -82.5t21 -83t5 -69q0 -35 -5 -72t-21 -83
t-41.5 -81t-71.5 -59t-106 -24q-117 0 -181.5 94.5t-64.5 224.5q0 34 4.5 69.5t20 82.5t41 82.5t72 60.5t108.5 25zM144 321q0 -37 8.5 -74t32.5 -69t61 -32q30 0 51 18t31 47t14 55.5t4 54.5q0 27 -4 53.5t-14 56t-31 47.5t-51 18q-102 0 -102 -175z" />
    <glyph glyph-name="odieresis" unicode="&#xf6;" 
d="M100 756q0 25 16.5 42t41.5 17t42 -17t17 -42t-17 -41.5t-42 -16.5t-41.5 16.5t-16.5 41.5zM280 756q0 25 16.5 42t41.5 17t42 -17t17 -42t-17 -41.5t-42 -16.5t-41.5 16.5t-16.5 41.5zM246 641q60 0 106 -25t71.5 -60.5t41.5 -82.5t21 -83t5 -69q0 -35 -5 -72t-21 -83
t-41.5 -81t-71.5 -59t-106 -24q-117 0 -181.5 94.5t-64.5 224.5q0 34 4.5 69.5t20 82.5t41 82.5t72 60.5t108.5 25zM144 321q0 -37 8.5 -74t32.5 -69t61 -32q30 0 51 18t31 47t14 55.5t4 54.5q0 27 -4 53.5t-14 56t-31 47.5t-51 18q-102 0 -102 -175z" />
    <glyph glyph-name="divide" unicode="&#xf7;" horiz-adv-x="611" 
d="M194 573q0 35 24 59.5t59 24.5q34 0 58.5 -25t24.5 -59q0 -35 -24.5 -58.5t-58.5 -23.5q-35 0 -59 23.5t-24 58.5zM0 428q0 9 7.5 15.5t18.5 6.5h487q11 0 18.5 -6.5t7.5 -15.5v-103q0 -9 -7.5 -15t-18.5 -6h-487q-11 0 -18.5 6t-7.5 15v103zM183 163q0 35 23.5 59
t58.5 24t59.5 -24t24.5 -59t-24.5 -58.5t-59.5 -23.5t-58.5 23.5t-23.5 58.5z" />
    <glyph glyph-name="oslash" unicode="&#xf8;" 
d="M18 1q-13 0 -17 8t3 19l50 84q-54 88 -54 209q0 34 4.5 69.5t20 82.5t41 82.5t72 60.5t108.5 25q58 0 106 -25l1 2q6 11 19 19.5t26 8.5h108q12 0 16 -8.5t-3 -19.5l-67 -113q39 -83 39 -184q0 -35 -5 -72t-21 -83t-41.5 -81t-71.5 -59t-106 -24q-46 0 -84 15
q-18 -16 -36 -16h-108zM144 321q0 -26 4 -50l129 219q-14 6 -31 6q-102 0 -102 -175zM246 146q30 0 51 18t31 47t14 55.5t4 54.5v4l-106 -179h6z" />
    <glyph glyph-name="ugrave" unicode="&#xf9;" horiz-adv-x="545" 
d="M352 734q6 -10 -1 -20t-20 -10l-113 -1q-15 0 -22 12l-80 147q-6 11 1 20.5t21 9.5l116 1q16 0 23 -13zM445 641q12 0 20 -8t8 -19v-352q-2 -62 -13 -105.5t-36 -80.5t-72 -55.5t-116 -18.5q-120 0 -176 59.5t-60 212.5v23v317q0 11 8 19t19 8h99q10 0 18.5 -8.5
t8.5 -18.5v-351q2 -66 19 -95t64 -29q49 0 65.5 26.5t18.5 86.5v362q0 11 8 19t20 8h97z" />
    <glyph glyph-name="uacute" unicode="&#xfa;" horiz-adv-x="545" 
d="M204 869q6 11 23 11h118q14 0 21 -9t1 -19l-82 -136q-6 -11 -22 -11l-114 1q-14 0 -21 9t-1 19zM445 641q12 0 20 -8t8 -19v-352q-2 -62 -13 -105.5t-36 -80.5t-72 -55.5t-116 -18.5q-120 0 -176 59.5t-60 212.5v23v317q0 11 8 19t19 8h99q10 0 18.5 -8.5t8.5 -18.5v-351
q2 -66 19 -95t64 -29q49 0 65.5 26.5t18.5 86.5v362q0 11 8 19t20 8h97z" />
    <glyph glyph-name="ucircumflex" unicode="&#xfb;" horiz-adv-x="545" 
d="M274 835q18 0 24 -11l93 -113q3 -5 -1 -8.5t-12 -3.5h-57q-20 0 -30 12l-52 62l-50 -62q-9 -12 -30 -12h-56q-9 0 -12.5 3.5t-1.5 8.5l93 113q6 11 25 11q0 1 4 1h57q6 0 6 -1zM445 641q12 0 20 -8t8 -19v-352q-2 -62 -13 -105.5t-36 -80.5t-72 -55.5t-116 -18.5
q-120 0 -176 59.5t-60 212.5v23v317q0 11 8 19t19 8h99q10 0 18.5 -8.5t8.5 -18.5v-351q2 -66 19 -95t64 -29q49 0 65.5 26.5t18.5 86.5v362q0 11 8 19t20 8h97z" />
    <glyph glyph-name="udieresis" unicode="&#xfc;" horiz-adv-x="545" 
d="M92 756q0 25 16.5 42t41.5 17t42 -17t17 -42t-17 -41.5t-42 -16.5t-41.5 16.5t-16.5 41.5zM272 756q0 25 16.5 42t41.5 17t42 -17t17 -42t-17 -41.5t-42 -16.5t-41.5 16.5t-16.5 41.5zM445 641q12 0 20 -8t8 -19v-352q-2 -62 -13 -105.5t-36 -80.5t-72 -55.5t-116 -18.5
q-120 0 -176 59.5t-60 212.5v23v317q0 11 8 19t19 8h99q10 0 18.5 -8.5t8.5 -18.5v-351q2 -66 19 -95t64 -29q49 0 65.5 26.5t18.5 86.5v362q0 11 8 19t20 8h97z" />
    <glyph glyph-name="yacute" unicode="&#xfd;" horiz-adv-x="560" 
d="M230 881q6 13 22 13l114 -1q13 0 19.5 -10t1.5 -21l-79 -151q-4 -12 -21 -12l-109 1q-13 0 -20 10.5t-1 20.5zM472 642q8 0 12.5 -7t1.5 -15l-165 -379q-1 -1 -1 -2v-220q0 -18 -18 -18h-116q-19 0 -19 18v220v2l-165 379q-4 8 0.5 15t12.5 7h114q9 0 14 -10l86 -208
q5 -9 15 -9t14 9l87 208q3 10 14 10h113z" />
    <glyph glyph-name="ydieresis" unicode="&#xff;" horiz-adv-x="560" 
d="M102 761q0 25 16.5 42t41.5 17t42 -17t17 -42t-17 -41.5t-42 -16.5t-41.5 16.5t-16.5 41.5zM282 761q0 25 16.5 42t41.5 17t42 -17t17 -42t-17 -41.5t-42 -16.5t-41.5 16.5t-16.5 41.5zM472 642q8 0 12.5 -7t1.5 -15l-165 -379q-1 -1 -1 -2v-220q0 -18 -18 -18h-116
q-19 0 -19 18v220v2l-165 379q-4 8 0.5 15t12.5 7h114q9 0 14 -10l86 -208q5 -9 15 -9t14 9l87 208q3 10 14 10h113z" />
    <glyph glyph-name="OE" unicode="&#x152;" horiz-adv-x="927" 
d="M627 313q-14 0 -24.5 -10.5t-10.5 -25.5v-78q0 -14 10.5 -24.5t24.5 -10.5h192q15 0 25.5 -10.5t10.5 -24.5v-92q0 -14 -10.5 -24.5t-25.5 -10.5h-377q-26 0 -34 25q-52 -25 -119 -25q-70 0 -126.5 32t-91.5 85.5t-53 120t-18 138.5q0 32 4 66t14 79t31 84t51.5 73t79 54
t109.5 20q65 0 119 -26q7 26 34 26h377q15 0 25.5 -10.5t10.5 -24.5v-93q0 -15 -10.5 -25t-25.5 -10h-192q-14 0 -24.5 -10.5t-10.5 -25.5v-44q0 -15 10.5 -25t24.5 -10h132q14 0 24.5 -10.5t10.5 -25.5v-92q0 -15 -10.5 -25t-24.5 -10h-132zM170 378q0 -43 9.5 -87
t38 -81.5t71.5 -37.5q36 0 61 21t36.5 55t16 65.5t4.5 64.5v11q-1 33 -6 62.5t-17 61.5t-36.5 51.5t-58.5 19.5q-28 0 -50 -12t-34 -33.5t-20 -42.5t-11 -48.5t-3.5 -40.5t-0.5 -29z" />
    <glyph glyph-name="oe" unicode="&#x153;" horiz-adv-x="812" 
d="M536 266q-12 0 -21 -9t-9 -22v-66q0 -12 9 -21t21 -9h163q13 0 22 -8.5t9 -20.5v-79q0 -12 -9 -20.5t-22 -8.5h-320q-25 0 -30 22q-44 -22 -103 -22q-117 0 -181.5 94.5t-64.5 224.5q0 34 4.5 69.5t20 82.5t41 82.5t72 60.5t108.5 25q57 0 103 -23q7 23 30 23h320
q13 0 22 -9t9 -21v-79q0 -13 -9 -21.5t-22 -8.5h-163q-12 0 -21 -8.5t-9 -21.5v-38q0 -12 9 -20.5t21 -8.5h112q12 0 21 -9t9 -22v-78q0 -13 -9 -21.5t-21 -8.5h-112zM144 321q0 -37 8.5 -74t32.5 -69t61 -32q30 0 51 18t31 47t14 55.5t4 54.5q0 27 -4 53.5t-14 56t-31 47.5
t-51 18q-102 0 -102 -175z" />
    <glyph glyph-name="Scaron" unicode="&#x160;" horiz-adv-x="567" 
d="M270 809q0 -1 -7 -1h-65q-5 0 -5 1q-23 0 -28 12l-107 130q-3 6 1.5 9.5t14.5 3.5h65q24 0 34 -13l57 -72l60 72q10 13 34 13h66q9 0 13 -3.5t2 -9.5l-107 -130q-5 -12 -28 -12zM310 458l-49 20q-25 9 -45 24q-19 13 -19 43q0 25 10.5 41t29 20.5t36 5.5t41 -4.5t33 -8
t21.5 -6.5l33 -12q11 -4 22 1.5t15 17.5l25 88q4 11 -2 21t-17 14q-56 17 -76 21q-53 10 -99 10q-18 0 -42 -3t-63.5 -16.5t-70.5 -35.5t-54 -66t-23 -103q0 -24 4 -45.5t10 -38t16 -31.5t18.5 -25.5t21.5 -20.5t21.5 -15.5t22 -12t19.5 -9t17 -6.5l10 -3q2 0 3 -1
q11 -3 26 -8t40.5 -16t42.5 -29t17 -39q0 -39 -29 -54q-28 -16 -80 -16q-37 0 -133 31q-12 4 -23 -2.5t-14 -18.5l-24 -101q-7 -25 18 -34q54 -18 79 -23q46 -10 111 -10q15 0 37.5 3.5t56.5 11.5t66 25.5t61 41.5t46.5 64t17.5 89q0 24 -4.5 46t-11.5 39t-18.5 33t-22 27.5
t-25.5 22.5t-25.5 18t-25.5 14t-22 9.5t-18 7t-12 4.5z" />
    <glyph glyph-name="scaron" unicode="&#x161;" horiz-adv-x="493" 
d="M246 700q-1 -2 -7 -2h-55q-5 0 -6 2q-18 0 -24 8l-93 122q-1 1 -1 2.5t1 2.5t2.5 2t4.5 1.5t7 0.5h56q15 0 31 -9l49 -67l51 67q16 9 31 9h57q14 0 14 -6l-1 -3l-92 -122q-8 -8 -25 -8zM263 389l-41 17q-21 7 -38 21q-17 11 -17 36t14 39t31 17t41.5 -0.5t35.5 -7
t24 -7.5l28 -10q10 -4 19 1t12 15l22 75q6 21 -17 30q-6 2 -20 6t-25 7t-19 4q-49 9 -84 9q-16 0 -36 -2.5t-53.5 -14t-60 -30.5t-46 -56.5t-19.5 -87.5q0 -130 131 -173q4 -2 5 -2t2 -1q107 -29 107 -79q0 -33 -24 -45q-24 -14 -68 -14q-32 0 -113 26q-10 4 -20 -1.5
t-12 -16.5l-20 -85q-3 -10 1.5 -18t13.5 -11q37 -13 67 -20q36 -8 94 -8q17 0 41 3.5t61 16t67 33t52 58.5t22 88q0 133 -153 186z" />
    <glyph glyph-name="Ydieresis" unicode="&#x178;" horiz-adv-x="646" 
d="M108 878q0 30 20.5 51t50.5 21t51 -21t21 -51t-21 -50.5t-51 -20.5q-31 0 -51 20t-20 51zM328 878q0 30 20.5 51t50.5 21t51 -21t21 -51t-21 -50.5t-51 -20.5q-31 0 -51 20t-20 51zM555 755q10 0 15.5 -8t1.5 -17l-194 -447q-1 -1 -1 -2v-259q0 -9 -6.5 -15t-15.5 -6
h-136q-9 0 -15.5 6t-6.5 15v259q0 1 -0.5 1t-0.5 1l-194 447q-4 9 1 17t15 8h134q11 0 16 -11l102 -245q4 -11 16.5 -11t17.5 11l102 245q3 11 16 11h133z" />
    <glyph glyph-name="Zcaron" unicode="&#x17d;" horiz-adv-x="632" 
d="M339 809q0 -1 -7 -1h-65q-5 0 -5 1q-23 0 -28 12l-107 130q-3 6 1.5 9.5t14.5 3.5h65q24 0 34 -13l57 -72l60 72q10 13 34 13h66q9 0 13 -3.5t2 -9.5l-107 -130q-5 -12 -28 -12zM535 754q14 0 21 -11.5t1 -23.5l-283 -559h238q9 0 15.5 -6.5t6.5 -15.5v-115
q0 -9 -6.5 -15.5t-15.5 -6.5h-487q-14 0 -21 11.5t-1 23.5l285 559h-242q-9 0 -15.5 6.5t-6.5 15.5v115q0 9 6.5 15.5t15.5 6.5h338h151z" />
    <glyph glyph-name="circumflex" unicode="&#x2c6;" horiz-adv-x="486" 
d="M311 925q17 0 21 -9l81 -98q2 -4 -1 -7t-10 -3h-50q-18 0 -26 10l-45 54l-43 -54q-8 -10 -26 -10h-49q-8 0 -11 2.5t-1 7.5l81 98q4 9 21 9q0 1 4 1h49q5 0 5 -1z" />
    <glyph glyph-name="caron" unicode="&#x2c7;" horiz-adv-x="554" 
d="M311 810q-1 -1 -6 -1h-47q-4 0 -5 1q-14 0 -21 7l-79 100q0 6 12 8h48q14 0 26 -8l42 -55l44 55q12 8 26 8h49q4 0 7.5 -1t4 -3t-0.5 -4l-79 -100q-7 -7 -21 -7z" />
    <glyph glyph-name="ring" unicode="&#x2da;" horiz-adv-x="366" 
d="M198 1001q40 0 68 -28t28 -68t-28 -68.5t-68 -28.5t-68 28.5t-28 68.5t28 68t68 28zM198 868q15 0 26 10.5t11 26.5q0 15 -11 25.5t-26 10.5t-25.5 -10.5t-10.5 -25.5q0 -16 10.5 -26.5t25.5 -10.5z" />
    <glyph glyph-name="ogonek" unicode="&#x2db;" horiz-adv-x="457" 
d="M378 -137v-1q7 -8 7 -21q0 -26 -21.5 -46t-53.5 -30.5t-61.5 -15.5t-52.5 -5q-29 0 -60.5 6t-63 19t-52 37t-20.5 56q0 40 35 68t79 40q0 3 -0.5 14.5t0 16t2 13.5t5 12.5t10 7t16.5 3.5q3 0 14 0.5t16.5 0.5t14.5 -2t14 -5t8.5 -9.5t3.5 -16.5v-85q0 -16 -13 -26.5
t-29 -10.5q-2 0 -14 0.5t-19 0.5t-16.5 -2t-14 -7t-4.5 -13q7 -9 19 -12l-1 1q36 -13 70 -13q21 0 63 10l-2 -1q21 7 25 16q24 22 44 22q33 0 52 -22z" />
    <glyph glyph-name="tilde" unicode="&#x2dc;" horiz-adv-x="597" 
d="M506 825q-34 -17 -73.5 -15t-73 14.5t-73 24t-73 14.5t-73.5 -15q-19 -10 -19 8v51q0 22 19 32q34 16 73.5 14.5t73 -14t73 -24t73 -14.5t73.5 15q19 9 19 -9v-51q0 -21 -19 -31z" />
    <glyph glyph-name="quoteleft" unicode="&#x2018;" horiz-adv-x="234" 
d="M0 695v3l1 1q0 3 2 5l38 94q3 8 12 8h43q3 0 5 -3t1 -6l-34 -84h76q8 0 13 -5.5t5 -12.5v-126q0 -7 -5 -12.5t-13 -5.5h-126q-8 0 -13 5.5t-5 12.5v126z" />
    <glyph glyph-name="quoteright" unicode="&#x2019;" horiz-adv-x="234" 
d="M162 662v-3l-1 -1q0 -3 -2 -5l-38 -94q-3 -8 -12 -8h-43q-3 0 -5 3t-1 6l34 84h-76q-8 0 -13 5t-5 13v126q0 8 5 13t13 5h126q8 0 13 -5t5 -13v-126z" />
    <glyph glyph-name="quotesinglbase" unicode="&#x201a;" horiz-adv-x="234" 
d="M162 144v-126v-3l-1 -1q0 -3 -2 -5l-38 -94q-3 -8 -12 -8h-43q-3 0 -5 3t-1 6l34 84h-76q-8 0 -13 5t-5 13v126q0 8 5 13t13 5h126q8 0 13 -5t5 -13z" />
    <glyph glyph-name="quotedblleft" unicode="&#x201c;" horiz-adv-x="833" 
d="M0 695v3l1 1q0 3 2 5l38 94q3 8 12 8h43q3 0 5 -3t1 -6l-34 -84h76q8 0 13 -5.5t5 -12.5v-126q0 -7 -5 -12.5t-13 -5.5h-126q-8 0 -13 5.5t-5 12.5v126zM220 695v3l1 1q0 3 2 5l38 94q3 8 12 8h43q3 0 5 -3t1 -6l-34 -84h76q8 0 13 -5.5t5 -12.5v-126q0 -7 -5 -12.5
t-13 -5.5h-126q-8 0 -13 5.5t-5 12.5v126z" />
    <glyph glyph-name="quotedblright" unicode="&#x201d;" horiz-adv-x="454" 
d="M162 662v-3l-1 -1q0 -3 -2 -5l-38 -94q-3 -8 -12 -8h-43q-3 0 -5 3t-1 6l34 84h-76q-8 0 -13 5t-5 13v126q0 8 5 13t13 5h126q8 0 13 -5t5 -13v-126zM382 662v-3l-1 -1q0 -3 -2 -5l-38 -94q-3 -8 -12 -8h-43q-3 0 -5 3t-1 6l34 84h-76q-8 0 -13 5t-5 13v126q0 8 5 13
t13 5h126q8 0 13 -5t5 -13v-126z" />
    <glyph glyph-name="quotedblbase" unicode="&#x201e;" horiz-adv-x="454" 
d="M162 18v-3l-1 -1q0 -3 -2 -5l-38 -94q-3 -8 -12 -8h-43q-3 0 -5 3t-1 6l34 84h-76q-8 0 -13 5t-5 13v126q0 8 5 13t13 5h126q8 0 13 -5t5 -13v-126zM382 18v-3l-1 -1q0 -3 -2 -5l-38 -94q-3 -8 -12 -8h-43q-3 0 -5 3t-1 6l34 84h-76q-8 0 -13 5t-5 13v126q0 8 5 13t13 5
h126q8 0 13 -5t5 -13v-126z" />
    <glyph glyph-name="dagger" unicode="&#x2020;" horiz-adv-x="412" 
d="M1 425q0 9 6.5 15.5t15.5 6.5h50v289q0 8 5.5 13t12.5 5h143q8 0 13.5 -5.5t5.5 -12.5v-289h52q9 0 15 -6.5t6 -15.5v-92q0 -9 -6 -15t-15 -6h-52v-293q0 -7 -5.5 -12.5t-13.5 -5.5h-143q-7 0 -12.5 5.5t-5.5 12.5v293h-50q-9 0 -15.5 6t-6.5 15v92z" />
    <glyph glyph-name="daggerdbl" unicode="&#x2021;" horiz-adv-x="500" 
d="M0 572q0 9 6.5 15t15.5 6h103v143q0 8 5.5 13t12.5 5h143q8 0 13.5 -5.5t5.5 -12.5v-143h105q9 0 15.5 -6t6.5 -15v-103q0 -9 -6.5 -15.5t-15.5 -6.5h-105v-125h105q9 0 15.5 -6.5t6.5 -15.5v-103q0 -9 -6.5 -15t-15.5 -6h-105v-157q0 -7 -5.5 -12.5t-13.5 -5.5h-143
q-7 0 -12.5 5.5t-5.5 12.5v157h-103q-9 0 -15.5 6t-6.5 15v103q0 9 6.5 15.5t15.5 6.5h103v125h-103q-9 0 -15.5 6.5t-6.5 15.5v103z" />
    <glyph glyph-name="bullet" unicode="&#x2022;" horiz-adv-x="250" 
d="M2 399q0 37 25.5 62.5t62.5 25.5t62.5 -25.5t25.5 -62.5t-25.5 -62.5t-62.5 -25.5t-62.5 25.5t-25.5 62.5z" />
    <glyph glyph-name="ellipsis" unicode="&#x2026;" horiz-adv-x="702" 
d="M18 1q-8 0 -13 5.5t-5 12.5v126q0 7 5 12.5t13 5.5h126q8 0 13 -5.5t5 -12.5v-126q0 -7 -5 -12.5t-13 -5.5h-126zM252 1q-8 0 -13 5.5t-5 12.5v126q0 7 5 12.5t13 5.5h126q8 0 13 -5.5t5 -12.5v-126q0 -7 -5 -12.5t-13 -5.5h-126zM486 1q-8 0 -13 5.5t-5 12.5v126
q0 7 5 12.5t13 5.5h126q8 0 13 -5.5t5 -12.5v-126q0 -7 -5 -12.5t-13 -5.5h-126z" />
    <glyph glyph-name="fraction" unicode="&#x2044;" horiz-adv-x="635" 
d="M135 1h-116q-13 0 -17.5 9.5t2.5 22.5l375 689q7 13 21.5 22.5t27.5 9.5h116q13 0 17 -9.5t-3 -22.5l-374 -689q-7 -13 -21.5 -22.5t-27.5 -9.5z" />
    <glyph glyph-name="Euro" unicode="&#x20ac;" horiz-adv-x="612" 
d="M538 64q4 -12 -2 -22.5t-18 -15.5l-26 -8q-28 -9 -65.5 -13.5t-84.5 -0.5t-94 16t-92 40t-79 68t-55 103.5t-21 142.5q0 74 14.5 133.5t36.5 99t57 68t64.5 44t71.5 23.5t67 10t60.5 -0.5t43 -3.5t23.5 -4q25 -3 69 -19q12 -4 18 -14.5t2 -22.5l-25 -90
q-4 -12 -15.5 -18.5t-23.5 -2.5q-6 2 -7 2q-168 46 -234 -64h264q7 0 12 -4.5t5 -11.5v-81q0 -7 -5 -12t-12 -5h-297v-27q0 -11 1 -16h296q7 0 12 -5t5 -12v-81q0 -7 -5 -11.5t-12 -4.5h-257q33 -47 87 -68.5t114 -10.5q4 1 11 2.5t16 4.5t14 4q13 4 24 -2t15 -18z" />
    <glyph glyph-name="trademark" unicode="&#x2122;" horiz-adv-x="547" 
d="M189 754q8 0 8 -8v-42q0 -8 -8 -8h-57v-211q0 -7 -8 -7h-50q-8 0 -8 7v211h-57q-8 0 -8 8v42q0 8 8 8h180zM467 754q8 0 8 -8v-261q0 -7 -8 -7h-50q-8 0 -8 7v132l-36 -92q-2 -5 -7 -5h-34q-4 0 -6 5l-36 92v-132q0 -7 -8 -7h-50q-8 0 -8 7v261q0 8 8 8h65q5 0 7 -5
l43 -117q1 -2 2.5 -2t2.5 2l43 117q2 5 7 5h65z" />
    <glyph glyph-name="minus" unicode="&#x2212;" horiz-adv-x="534" 
d="M0 428q0 9 6.5 15.5t15.5 6.5h418q9 0 15.5 -6.5t6.5 -15.5v-103q0 -9 -6.5 -15t-15.5 -6h-418q-9 0 -15.5 6t-6.5 15v103z" />
    </font>
</defs>
</svg>
